<svg xmlns="http://www.w3.org/2000/svg" version="1.1" xmlns:xlink="http://www.w3.org/1999/xlink" xmlns:svgjs="http://svgjs.dev/svgjs" width="1000" height="1000" viewBox="0 0 1000 1000"><rect width="1000" height="1000" fill="#000000"></rect><g transform="matrix(0.7,0,0,0.7,149.57575757575756,380.119279886335)"><svg viewBox="0 0 396 136" data-background-color="#ffffff" preserveAspectRatio="xMidYMid meet" height="343" width="1000" xmlns="http://www.w3.org/2000/svg" xmlns:xlink="http://www.w3.org/1999/xlink"><g id="tight-bounds" transform="matrix(1,0,0,1,0.2400000000000091,-0.0958853167078928)"><svg viewBox="0 0 395.52 136.19177063341579" height="136.19177063341579" width="395.52"><g><svg viewBox="0 0 622.9047350145335 214.48851839999998" height="136.19177063341579" width="395.52"><g transform="matrix(1,0,0,1,227.38473501453348,36.30802252181988)"><svg viewBox="0 0 395.52 141.87247335636022" height="141.87247335636022" width="395.52"><g id="textblocktransform"><svg viewBox="0 0 395.52 141.87247335636022" height="141.87247335636022" width="395.52" id="textblock"><g><svg viewBox="0 0 395.52 117.45089763522772" height="117.45089763522772" width="395.52"><g transform="matrix(1,0,0,1,0,0)"><svg width="395.52" viewBox="82.8599853515625 -37.73999786376953 289.53850841522217 82.05000305175781" height="117.45089763522772" data-palette-color="#755bb4"><g transform="matrix(1,0,0,1,0,0)"><g><svg width="16.465654373168945" viewBox="1.7799999713897705 -36.36000061035156 74.20999908447266 36.36000061035156" height="8.0673828125" data-palette-color="#755bb4" id="scriptelement" x="355.93283438449726" y="-37.73999786376953"><path d="M12.91-30.02L1.78-30.02 1.78-36.36 31.64-36.36 31.64-30.02 20.51-30.02 20.51 0 12.91 0 12.91-30.02ZM36.57 0L36.57-36.36 46.06-36.36 56.07-11.93 56.5-11.93 66.51-36.36 75.99-36.36 75.99 0 68.53 0 68.53-23.67 68.23-23.67 58.82-0.18 53.74-0.18 44.33-23.76 44.03-23.76 44.03 0 36.57 0Z" opacity="1" transform="matrix(1,0,0,1,0,0)" fill="#ffffff" class="undefined-123" data-fill-palette-color="primary" id="p-123"></path></svg></g></g><svg></svg><svg></svg><g class="wordmark-text-0" data-fill-palette-color="primary" id="text-0"><path xmlns="http://www.w3.org/2000/svg" d="M124.07-1.37v2.2c-0.62-0.033-1.223-0.083-1.81-0.15v0c-0.487-0.06-0.967-0.107-1.44-0.14-0.467-0.033-0.817-0.05-1.05-0.05v0c-1.267 0-2.533 0.023-3.8 0.07-1.273 0.047-2.527 0.137-3.76 0.27v0c0.027-1.367 0.05-2.71 0.07-4.03 0.013-1.32 0.02-2.663 0.02-4.03v0c0-2.44-0.04-4.863-0.12-7.27-0.08-2.413-0.153-4.823-0.22-7.23v0l-10.25 23.19c-1.5-4.067-3.103-8.06-4.81-11.98-1.713-3.927-3.497-7.843-5.35-11.75v0l0.78 24.13c-0.353 0-0.72-0.01-1.1-0.03-0.373-0.013-0.753-0.02-1.14-0.02v0c-1.24 0-2.453 0.047-3.64 0.14-1.187 0.1-2.383 0.2-3.59 0.3v0c0.16-3.027 0.323-6.04 0.49-9.04 0.16-2.993 0.24-6.003 0.24-9.03v0c0-3.547-0.023-7.08-0.07-10.6-0.047-3.513-0.087-7.043-0.12-10.59v0c2.34 0 4.627-0.067 6.86-0.2 2.227-0.127 4.513-0.303 6.86-0.53v0c0.78 2.6 1.583 5.18 2.41 7.74 0.833 2.553 1.723 5.1 2.67 7.64v0c1.007-2.413 2.153-4.773 3.44-7.08 1.287-2.313 2.597-4.61 3.93-6.89v0c2.213-0.067 4.403-0.13 6.57-0.19 2.16-0.067 4.347-0.117 6.56-0.15v0c0.1 2.927 0.223 5.823 0.37 8.69 0.147 2.867 0.283 5.763 0.41 8.69v0c0.1 2.313 0.19 4.627 0.27 6.94 0.087 2.307 0.16 4.6 0.22 6.88v0zM163.52-18.12v0c-4.26 0.233-8.507 0.423-12.74 0.57-4.233 0.147-8.48 0.3-12.74 0.46v0c-0.033 0.133-0.05 0.263-0.05 0.39 0 0.133 0 0.263 0 0.39v0c0 1.107 0.25 1.953 0.75 2.54 0.507 0.587 1.133 1.003 1.88 1.25 0.753 0.24 1.583 0.377 2.49 0.41 0.913 0.033 1.76 0.05 2.54 0.05v0c2.18 0 4.363-0.073 6.55-0.22 2.18-0.147 4.377-0.3 6.59-0.46v0l0.39 7.76c-2.147 0.1-4.287 0.18-6.42 0.24-2.133 0.067-4.273 0.1-6.42 0.1v0c-0.46 0-1.3-0.007-2.52-0.02-1.22-0.02-2.52-0.07-3.9-0.15-1.387-0.08-2.683-0.187-3.89-0.32-1.2-0.127-1.997-0.303-2.39-0.53v0c-1.007-0.587-1.797-1.337-2.37-2.25-0.567-0.913-1.007-1.907-1.32-2.98-0.307-1.073-0.517-2.17-0.63-3.29-0.113-1.127-0.187-2.21-0.22-3.25v0c-0.033-0.167-0.04-0.337-0.02-0.51 0.013-0.18 0.02-0.353 0.02-0.52v0c0-1.72 0.187-3.323 0.56-4.81 0.373-1.48 1.067-2.92 2.08-4.32v0c0.68-0.973 1.687-1.787 3.02-2.44 1.34-0.653 2.79-1.167 4.35-1.54 1.56-0.373 3.123-0.633 4.69-0.78 1.56-0.147 2.91-0.22 4.05-0.22v0c1.007 0 2.243 0.09 3.71 0.27 1.467 0.18 2.923 0.48 4.37 0.9 1.447 0.427 2.757 0.973 3.93 1.64 1.173 0.667 1.97 1.49 2.39 2.47v0c0.067 0.193 0.14 0.527 0.22 1 0.087 0.467 0.177 1.003 0.27 1.61 0.1 0.6 0.19 1.243 0.27 1.93 0.08 0.68 0.153 1.33 0.22 1.95 0.067 0.62 0.123 1.173 0.17 1.66 0.053 0.487 0.093 0.827 0.12 1.02zM140.57-21.14l16.31-0.54c-0.193-1.433-0.56-2.563-1.1-3.39-0.533-0.833-1.2-1.453-2-1.86-0.793-0.407-1.703-0.667-2.73-0.78-1.027-0.113-2.127-0.17-3.3-0.17v0c-0.387 0-0.873 0.007-1.46 0.02-0.587 0.02-1.173 0.07-1.76 0.15-0.587 0.08-1.14 0.203-1.66 0.37-0.52 0.16-0.927 0.387-1.22 0.68v0c-0.227 0.193-0.413 0.463-0.56 0.81-0.147 0.34-0.27 0.703-0.37 1.09-0.1 0.393-0.173 0.777-0.22 1.15-0.047 0.373-0.07 0.69-0.07 0.95v0c0 0.52 0.047 1.027 0.14 1.52zM195.56-20.61v0 1.13l-9.43 0.44c0.1-0.427 0.15-0.917 0.15-1.47v0c0-0.813-0.113-1.34-0.34-1.58-0.233-0.247-0.74-0.37-1.52-0.37v0c-1.107 0-2.327 0.193-3.66 0.58-1.333 0.393-2.507 0.77-3.52 1.13v0c-0.16 1.433-0.29 2.863-0.39 4.29-0.093 1.433-0.14 2.867-0.14 4.3v0c0 1.593 0.007 3.18 0.02 4.76 0.02 1.58 0.047 3.167 0.08 4.76v0l-8.4 0.54c-0.167-2.08-0.33-4.157-0.49-6.23-0.167-2.067-0.313-4.14-0.44-6.22v0c-0.167-2.767-0.38-5.527-0.64-8.28-0.26-2.747-0.52-5.52-0.78-8.32v0c1.86 0.127 3.707 0.313 5.54 0.56 1.84 0.247 3.69 0.547 5.55 0.9v0l-0.25 4.1c0.98-0.78 1.917-1.453 2.81-2.02 0.893-0.573 1.803-1.053 2.73-1.44 0.933-0.393 1.92-0.68 2.96-0.86 1.04-0.18 2.197-0.27 3.47-0.27v0c0.847 0 1.723 0.09 2.63 0.27 0.913 0.18 1.697 0.597 2.35 1.25v0c0.32 0.353 0.597 0.89 0.83 1.61 0.227 0.713 0.403 1.47 0.53 2.27 0.133 0.8 0.223 1.58 0.27 2.34 0.053 0.767 0.08 1.377 0.08 1.83zM229.78-25.73v0c0 1.493-0.193 2.94-0.58 4.34v0c-0.227 0.033-0.903 0.077-2.03 0.13-1.12 0.047-2.453 0.11-4 0.19-1.547 0.08-3.207 0.177-4.98 0.29-1.773 0.113-3.417 0.237-4.93 0.37-1.52 0.133-2.807 0.27-3.86 0.41-1.06 0.147-1.653 0.287-1.78 0.42v0c-0.527 0.453-0.92 1.007-1.18 1.66-0.26 0.653-0.39 1.303-0.39 1.95v0c0 0.393 0.043 0.697 0.13 0.91 0.08 0.207 0.217 0.44 0.41 0.7v0c0.1 0.1 0.443 0.183 1.03 0.25 0.58 0.067 1.23 0.117 1.95 0.15 0.713 0.027 1.38 0.05 2 0.07 0.62 0.013 0.977 0.02 1.07 0.02v0c2.347 0 4.693-0.047 7.04-0.14 2.34-0.1 4.683-0.23 7.03-0.39v0l0.39 8.39c-3.253 0.26-6.517 0.513-9.79 0.76-3.273 0.247-6.553 0.37-9.84 0.37v0c-0.16 0-0.397 0-0.71 0-0.307 0-0.64-0.01-1-0.03-0.36-0.013-0.703-0.037-1.03-0.07-0.32-0.033-0.547-0.067-0.68-0.1v0c-0.68-0.193-1.357-0.413-2.03-0.66-0.667-0.24-1.293-0.55-1.88-0.93-0.58-0.373-1.09-0.82-1.53-1.34-0.44-0.52-0.76-1.153-0.96-1.9v0c-0.127-0.487-0.23-1.13-0.31-1.93-0.08-0.8-0.137-1.623-0.17-2.47-0.033-0.847-0.06-1.677-0.08-2.49-0.013-0.813-0.02-1.497-0.02-2.05v0c0-1.267 0.017-2.453 0.05-3.56 0.033-1.107 0.21-2.123 0.53-3.05 0.327-0.933 0.857-1.763 1.59-2.49 0.733-0.733 1.783-1.377 3.15-1.93v0c0.62-0.26 1.547-0.463 2.78-0.61 1.24-0.147 2.537-0.26 3.89-0.34 1.347-0.087 2.64-0.147 3.88-0.18 1.233-0.027 2.193-0.04 2.88-0.04v0c2.28 0 4.55 0.047 6.81 0.14 2.26 0.1 4.53 0.23 6.81 0.39v0c0.1 0.813 0.183 1.62 0.25 2.42 0.06 0.8 0.09 1.59 0.09 2.37zM267.92-22.02v0c0 2.733-0.097 5.45-0.29 8.15-0.2 2.707-0.397 5.41-0.59 8.11v0c-3.647 0.327-7.277 0.603-10.89 0.83-3.613 0.227-7.243 0.34-10.89 0.34v0c-0.327 0-0.927-0.007-1.8-0.02-0.88-0.02-1.81-0.053-2.79-0.1-0.973-0.053-1.9-0.12-2.78-0.2-0.88-0.08-1.467-0.2-1.76-0.36v0c-1.073-0.587-1.82-1.33-2.24-2.23-0.427-0.893-0.64-1.91-0.64-3.05v0c0-0.387 0.017-0.907 0.05-1.56 0.033-0.653 0.097-1.337 0.19-2.05 0.1-0.713 0.233-1.38 0.4-2 0.16-0.62 0.353-1.077 0.58-1.37v0c0.293-0.393 0.96-0.727 2-1 1.047-0.28 2.293-0.5 3.74-0.66 1.447-0.16 3.01-0.29 4.69-0.39 1.673-0.1 3.277-0.173 4.81-0.22 1.527-0.047 2.893-0.07 4.1-0.07 1.2 0 2.06 0 2.58 0v0c0.1-0.72 0.15-1.42 0.15-2.1v0c0-0.067 0-0.24 0-0.52 0-0.273-0.017-0.443-0.05-0.51v0c-0.093-0.193-0.403-0.357-0.93-0.49-0.52-0.127-1.16-0.223-1.92-0.29-0.767-0.067-1.597-0.123-2.49-0.17-0.9-0.047-1.773-0.07-2.62-0.07-0.847 0-1.593 0-2.24 0-0.653 0-1.127 0-1.42 0v0c-2.047 0-4.097 0.04-6.15 0.12-2.053 0.08-4.103 0.153-6.15 0.22v0c0.127-1.24 0.23-2.493 0.31-3.76 0.087-1.273 0.097-2.527 0.03-3.76v0c2.373-0.427 4.757-0.727 7.15-0.9 2.393-0.18 4.81-0.27 7.25-0.27v0c0.88 0 1.84 0.007 2.88 0.02 1.047 0.02 2.09 0.053 3.13 0.1 1.04 0.047 2.073 0.12 3.1 0.22 1.027 0.1 1.98 0.23 2.86 0.39v0c0.907 0.16 1.81 0.453 2.71 0.88 0.893 0.42 1.73 0.94 2.51 1.56 0.78 0.62 1.463 1.327 2.05 2.12 0.587 0.8 1.01 1.657 1.27 2.57v0c0.033 0.093 0.057 0.257 0.07 0.49 0.02 0.227 0.03 0.477 0.03 0.75 0 0.28 0 0.533 0 0.76 0 0.227 0 0.39 0 0.49zM257.03-10.55v0-6.25c-0.947-0.033-1.89-0.057-2.83-0.07-0.947-0.013-1.89-0.02-2.83-0.02v0c-0.2 0-0.747 0.007-1.64 0.02-0.893 0.013-1.853 0.053-2.88 0.12-1.027 0.067-1.963 0.15-2.81 0.25-0.847 0.093-1.333 0.24-1.46 0.44v0c-0.167 0.26-0.273 0.527-0.32 0.8-0.047 0.28-0.07 0.567-0.07 0.86v0c0 0.227 0.013 0.533 0.04 0.92 0.033 0.393 0.093 0.8 0.18 1.22 0.08 0.427 0.167 0.82 0.26 1.18 0.1 0.353 0.23 0.613 0.39 0.78v0c0.133 0.16 0.353 0.28 0.66 0.36 0.313 0.087 0.65 0.153 1.01 0.2 0.353 0.047 0.71 0.08 1.07 0.1 0.36 0.013 0.637 0.02 0.83 0.02v0c0.78 0 1.617-0.033 2.51-0.1 0.9-0.06 1.813-0.133 2.74-0.22 0.927-0.08 1.83-0.177 2.71-0.29 0.88-0.113 1.693-0.22 2.44-0.32zM306.64-27.15v0c0 1.367 0 2.717 0 4.05 0 1.34-0.033 2.693-0.1 4.06v0c-0.067 2.993-0.197 5.963-0.39 8.91-0.193 2.947-0.403 5.9-0.63 8.86v0c-2.967 0.193-5.897 0.357-8.79 0.49-2.9 0.127-5.83 0.19-8.79 0.19v0c-0.393 0-1.013-0.007-1.86-0.02-0.847-0.013-1.75-0.037-2.71-0.07-0.96-0.033-1.863-0.09-2.71-0.17-0.847-0.087-1.463-0.21-1.85-0.37v0c-2.507-0.913-4.37-2.143-5.59-3.69-1.22-1.547-1.83-3.687-1.83-6.42v0-0.78c0.06-1.207 0.157-2.28 0.29-3.22 0.127-0.947 0.363-1.81 0.71-2.59 0.34-0.78 0.81-1.503 1.41-2.17 0.607-0.667 1.43-1.343 2.47-2.03v0c0.713-0.487 1.56-0.893 2.54-1.22 0.973-0.327 1.99-0.603 3.05-0.83 1.06-0.227 2.1-0.39 3.12-0.49 1.027-0.093 1.963-0.14 2.81-0.14v0c1.567 0 3.12 0.113 4.66 0.34 1.547 0.227 3.087 0.567 4.62 1.02v0c-0.167-2.147-0.307-4.27-0.42-6.37-0.113-2.1-0.283-4.207-0.51-6.32v0c1.76-0.167 3.503-0.347 5.23-0.54 1.72-0.193 3.443-0.39 5.17-0.59v0c0.033 1.693 0.057 3.38 0.07 5.06 0.02 1.673 0.03 3.357 0.03 5.05zM299.17-12.4v0c0-0.753 0-1.503 0-2.25 0-0.747-0.017-1.493-0.05-2.24v0c-2.053-0.1-4.103-0.15-6.15-0.15v0c-0.293 0-0.913 0.007-1.86 0.02-0.94 0.02-1.94 0.053-3 0.1-1.06 0.047-2.047 0.13-2.96 0.25-0.907 0.113-1.49 0.25-1.75 0.41v0c-0.493 0.36-0.797 0.863-0.91 1.51-0.113 0.653-0.17 1.257-0.17 1.81v0c0 0.26 0.017 0.61 0.05 1.05 0.033 0.44 0.09 0.897 0.17 1.37 0.08 0.473 0.187 0.913 0.32 1.32 0.133 0.407 0.28 0.707 0.44 0.9v0c0.1 0.1 0.27 0.18 0.51 0.24 0.247 0.067 0.517 0.117 0.81 0.15 0.293 0.033 0.577 0.05 0.85 0.05 0.28 0 0.5 0 0.66 0v0c1.853 0 3.693-0.083 5.52-0.25 1.82-0.16 3.66-0.37 5.52-0.63v0c0.26-0.067 0.567-0.107 0.92-0.12 0.36-0.02 0.687-0.077 0.98-0.17v0-0.1c0-0.033 0.017-0.067 0.05-0.1v0c0.067-0.52 0.09-1.04 0.07-1.56-0.013-0.52-0.02-1.057-0.02-1.61zM347.7-19.34v0c0 0.26 0 0.513 0 0.76 0 0.247-0.017 0.5-0.05 0.76v0c-0.027 0.453-0.107 1.2-0.24 2.24-0.127 1.047-0.307 2.13-0.54 3.25-0.227 1.127-0.503 2.16-0.83 3.1-0.32 0.947-0.677 1.55-1.07 1.81v0c-0.193 0.127-0.853 0.24-1.98 0.34-1.12 0.1-2.487 0.197-4.1 0.29-1.613 0.1-3.363 0.183-5.25 0.25-1.887 0.06-3.683 0.117-5.39 0.17-1.713 0.047-3.213 0.087-4.5 0.12-1.287 0.033-2.14 0.05-2.56 0.05v0c-0.193 0-0.527 0-1 0-0.473 0-0.97-0.01-1.49-0.03-0.52-0.013-1.01-0.037-1.47-0.07-0.453-0.033-0.777-0.083-0.97-0.15v0c-0.46-0.16-0.917-0.427-1.37-0.8-0.453-0.373-0.877-0.797-1.27-1.27-0.387-0.473-0.737-0.963-1.05-1.47-0.307-0.5-0.527-0.98-0.66-1.44v0c-0.093-0.353-0.173-0.897-0.24-1.63-0.067-0.733-0.117-1.5-0.15-2.3-0.033-0.793-0.057-1.567-0.07-2.32-0.02-0.747-0.03-1.313-0.03-1.7v0c0-0.62 0.017-1.477 0.05-2.57 0.033-1.087 0.133-2.2 0.3-3.34 0.16-1.14 0.393-2.207 0.7-3.2 0.313-0.993 0.763-1.687 1.35-2.08v0c0.26-0.16 0.747-0.307 1.46-0.44 0.72-0.127 1.567-0.24 2.54-0.34 0.98-0.093 2.023-0.167 3.13-0.22 1.107-0.047 2.187-0.08 3.24-0.1 1.06-0.013 2.047-0.02 2.96-0.02 0.907 0 1.637 0.017 2.19 0.05v0c0.493 0.033 1.193 0.057 2.1 0.07 0.913 0.02 1.933 0.047 3.06 0.08 1.12 0.027 2.283 0.083 3.49 0.17 1.2 0.08 2.323 0.183 3.37 0.31 1.04 0.133 1.957 0.307 2.75 0.52 0.8 0.207 1.33 0.457 1.59 0.75v0c0.427 0.46 0.77 1.143 1.03 2.05 0.26 0.913 0.463 1.883 0.61 2.91 0.147 1.027 0.243 2.037 0.29 3.03 0.047 0.993 0.07 1.797 0.07 2.41zM337.35-18.31v0c0-0.393-0.017-0.85-0.05-1.37-0.033-0.52-0.08-1.047-0.14-1.58-0.067-0.54-0.167-1.063-0.3-1.57-0.127-0.5-0.287-0.913-0.48-1.24v0c-0.267-0.427-0.773-0.753-1.52-0.98-0.747-0.227-1.567-0.397-2.46-0.51-0.9-0.113-1.78-0.187-2.64-0.22-0.86-0.033-1.503-0.05-1.93-0.05v0c-0.227 0-0.633 0.007-1.22 0.02-0.587 0.02-1.197 0.047-1.83 0.08-0.633 0.033-1.227 0.09-1.78 0.17-0.553 0.08-0.913 0.17-1.08 0.27v0c-0.293 0.193-0.52 0.493-0.68 0.9-0.167 0.407-0.29 0.853-0.37 1.34-0.08 0.493-0.127 0.973-0.14 1.44-0.02 0.473-0.03 0.857-0.03 1.15v0c0 0.293 0.023 0.823 0.07 1.59 0.053 0.767 0.12 1.58 0.2 2.44 0.08 0.86 0.187 1.65 0.32 2.37 0.127 0.713 0.29 1.167 0.49 1.36v0c0.227 0.267 0.657 0.48 1.29 0.64 0.633 0.16 1.317 0.297 2.05 0.41 0.733 0.12 1.44 0.203 2.12 0.25 0.687 0.047 1.177 0.07 1.47 0.07v0c0.52 0 1.137-0.017 1.85-0.05 0.72-0.033 1.447-0.113 2.18-0.24 0.733-0.133 1.423-0.313 2.07-0.54 0.653-0.227 1.177-0.537 1.57-0.93v0c0.227-0.227 0.403-0.567 0.53-1.02 0.133-0.453 0.233-0.943 0.3-1.47 0.06-0.52 0.1-1.03 0.12-1.53 0.013-0.507 0.02-0.907 0.02-1.2z" fill="#ffffff" fill-rule="nonzero" stroke="none" stroke-width="1" stroke-linecap="butt" stroke-linejoin="miter" stroke-miterlimit="10" stroke-dasharray="" stroke-dashoffset="0" font-family="none" font-weight="none" font-size="none" text-anchor="none" style="mix-blend-mode: normal" data-fill-palette-color="primary" opacity="1"></path><path xmlns="http://www.w3.org/2000/svg" d="M137.21 14.57v0 3.42l-9.43 0.49c-0.127 1.887-0.223 3.757-0.29 5.61-0.067 1.86-0.1 3.717-0.1 5.57v0c0 2.28-0.057 4.55-0.17 6.81-0.113 2.26-0.253 4.513-0.42 6.76v0c-1.167 0.067-2.337 0.127-3.51 0.18-1.173 0.047-2.347 0.07-3.52 0.07v0c-0.42 0-0.833-0.01-1.24-0.03-0.407-0.013-0.807-0.02-1.2-0.02v0c0.067-1.987 0.123-3.963 0.17-5.93 0.053-1.973 0.08-3.937 0.08-5.89v0c0-1.953-0.05-3.913-0.15-5.88-0.1-1.967-0.213-3.943-0.34-5.93v0c-0.947 0.033-1.9 0.063-2.86 0.09-0.96 0.033-1.927 0.05-2.9 0.05v0c-0.553 0-1.1 0-1.64 0-0.533 0-1.08-0.017-1.64-0.05v0c-0.093-2.407-0.157-4.797-0.19-7.17-0.033-2.38-0.067-4.757-0.1-7.13v0c4.887 0.093 9.737 0.23 14.55 0.41 4.82 0.18 9.653 0.337 14.5 0.47v0c0.133 1.4 0.233 2.757 0.3 4.07 0.067 1.32 0.1 2.663 0.1 4.03zM169.97 22.38v0 1.13l-9.42 0.44c0.093-0.427 0.14-0.917 0.14-1.47v0c0-0.813-0.113-1.34-0.34-1.58-0.227-0.247-0.73-0.37-1.51-0.37v0c-1.107 0-2.33 0.193-3.67 0.58-1.333 0.393-2.503 0.77-3.51 1.13v0c-0.167 1.433-0.297 2.863-0.39 4.29-0.1 1.433-0.15 2.867-0.15 4.3v0c0 1.593 0.01 3.18 0.03 4.76 0.013 1.58 0.037 3.167 0.07 4.76v0l-8.4 0.54c-0.16-2.08-0.323-4.157-0.49-6.23-0.16-2.067-0.307-4.14-0.44-6.22v0c-0.16-2.767-0.37-5.527-0.63-8.28-0.26-2.747-0.52-5.52-0.78-8.32v0c1.853 0.127 3.7 0.313 5.54 0.56 1.84 0.247 3.687 0.547 5.54 0.9v0l-0.24 4.1c0.973-0.78 1.907-1.453 2.8-2.02 0.9-0.573 1.813-1.053 2.74-1.44 0.927-0.393 1.91-0.68 2.95-0.86 1.047-0.18 2.203-0.27 3.47-0.27v0c0.847 0 1.727 0.09 2.64 0.27 0.907 0.18 1.687 0.597 2.34 1.25v0c0.327 0.353 0.603 0.89 0.83 1.61 0.227 0.713 0.407 1.47 0.54 2.27 0.127 0.8 0.217 1.58 0.27 2.34 0.047 0.767 0.07 1.377 0.07 1.83zM205.66 40.5v0l-8.25 0.34-0.59-4.93c-0.613 0.847-1.353 1.563-2.22 2.15-0.86 0.587-1.787 1.057-2.78 1.41-0.993 0.36-2.02 0.613-3.08 0.76-1.053 0.147-2.087 0.22-3.1 0.22v0c-0.78 0-1.747-0.063-2.9-0.19-1.16-0.133-2.333-0.323-3.52-0.57-1.187-0.24-2.283-0.557-3.29-0.95-1.013-0.387-1.747-0.843-2.2-1.37v0c-0.36-0.387-0.63-1.013-0.81-1.88-0.18-0.86-0.3-1.777-0.36-2.75-0.067-0.98-0.1-1.927-0.1-2.84 0-0.907 0-1.637 0-2.19v0c0-2.447 0.097-4.857 0.29-7.23 0.2-2.373 0.477-4.733 0.83-7.08v0c0.913-0.1 1.89-0.15 2.93-0.15v0c0.847 0 1.693 0.057 2.54 0.17 0.847 0.12 1.693 0.26 2.54 0.42v0c0 0.16 0.017 0.633 0.05 1.42 0.033 0.78 0.073 1.707 0.12 2.78 0.047 1.073 0.103 2.22 0.17 3.44 0.067 1.22 0.14 2.35 0.22 3.39 0.08 1.047 0.177 1.937 0.29 2.67 0.12 0.727 0.243 1.123 0.37 1.19v0c0.487 0.293 1.023 0.457 1.61 0.49 0.587 0.033 1.157 0.05 1.71 0.05v0c0.393 0 1.003-0.023 1.83-0.07 0.833-0.053 1.69-0.137 2.57-0.25 0.873-0.113 1.687-0.26 2.44-0.44 0.747-0.18 1.25-0.4 1.51-0.66v0c0.1-0.093 0.173-0.4 0.22-0.92 0.047-0.527 0.08-1.097 0.1-1.71 0.013-0.62 0.03-1.2 0.05-1.74 0.013-0.533 0.02-0.85 0.02-0.95v0c0-1.467-0.033-2.913-0.1-4.34-0.06-1.433-0.123-2.883-0.19-4.35v0l9.47-0.44c0.193 2.28 0.373 4.55 0.54 6.81 0.16 2.267 0.37 4.537 0.63 6.81v0c0.1 0.753 0.157 1.52 0.17 2.3 0.02 0.78 0.047 1.56 0.08 2.34v0c0.06 1.467 0.1 2.933 0.12 4.4 0.013 1.46 0.037 2.94 0.07 4.44zM242.43 17.26v0c0 1.493-0.197 2.94-0.59 4.34v0c-0.227 0.033-0.9 0.077-2.02 0.13-1.127 0.047-2.463 0.11-4.01 0.19-1.547 0.08-3.207 0.177-4.98 0.29-1.773 0.113-3.417 0.237-4.93 0.37-1.513 0.133-2.8 0.27-3.86 0.41-1.053 0.147-1.647 0.287-1.78 0.42v0c-0.52 0.453-0.91 1.007-1.17 1.66-0.26 0.653-0.39 1.303-0.39 1.95v0c0 0.393 0.04 0.697 0.12 0.91 0.08 0.207 0.22 0.44 0.42 0.7v0c0.093 0.1 0.433 0.183 1.02 0.25 0.587 0.067 1.24 0.117 1.96 0.15 0.713 0.027 1.38 0.05 2 0.07 0.613 0.013 0.97 0.02 1.07 0.02v0c2.347 0 4.69-0.047 7.03-0.14 2.347-0.1 4.69-0.23 7.03-0.39v0l0.39 8.39c-3.253 0.26-6.517 0.513-9.79 0.76-3.267 0.247-6.543 0.37-9.83 0.37v0c-0.167 0-0.403 0-0.71 0-0.313 0-0.647-0.01-1-0.03-0.36-0.013-0.703-0.037-1.03-0.07-0.327-0.033-0.553-0.067-0.68-0.1v0c-0.687-0.193-1.363-0.413-2.03-0.66-0.667-0.24-1.293-0.55-1.88-0.93-0.587-0.373-1.1-0.82-1.54-1.34-0.44-0.52-0.757-1.153-0.95-1.9v0c-0.127-0.487-0.233-1.13-0.32-1.93-0.08-0.8-0.137-1.623-0.17-2.47-0.033-0.847-0.057-1.677-0.07-2.49-0.013-0.813-0.02-1.497-0.02-2.05v0c0-1.267 0.013-2.453 0.04-3.56 0.033-1.107 0.213-2.123 0.54-3.05 0.327-0.933 0.857-1.763 1.59-2.49 0.733-0.733 1.783-1.377 3.15-1.93v0c0.62-0.26 1.547-0.463 2.78-0.61 1.24-0.147 2.533-0.26 3.88-0.34 1.353-0.087 2.647-0.147 3.88-0.18 1.24-0.027 2.203-0.04 2.89-0.04v0c2.273 0 4.543 0.047 6.81 0.14 2.26 0.1 4.53 0.23 6.81 0.39v0c0.093 0.813 0.173 1.62 0.24 2.42 0.067 0.8 0.1 1.59 0.1 2.37zM279 23.95v0c0 1.2-0.073 2.41-0.22 3.63-0.147 1.227-0.3 2.44-0.46 3.64v0c-0.26 2.12-0.553 4.213-0.88 6.28-0.327 2.067-0.653 4.157-0.98 6.27v0c-1.593 0.033-3.153 0.1-4.68 0.2-1.533 0.093-3.08 0.207-4.64 0.34v0c0-2.38 0-4.733 0-7.06 0-2.327-0.05-4.66-0.15-7v0c0-0.46-0.007-1.047-0.02-1.76-0.02-0.72-0.093-1.307-0.22-1.76v0c-0.2-0.747-0.447-1.26-0.74-1.54-0.293-0.273-0.863-0.41-1.71-0.41v0c-0.58 0-1.263 0.063-2.05 0.19-0.78 0.133-1.577 0.297-2.39 0.49-0.813 0.193-1.587 0.413-2.32 0.66-0.733 0.247-1.343 0.5-1.83 0.76v0c-0.26 2.633-0.577 5.253-0.95 7.86-0.373 2.6-0.61 5.237-0.71 7.91v0l-6.88-0.34c-0.36-5.86-0.703-11.697-1.03-17.51-0.327-5.807-0.637-11.64-0.93-17.5v0l10.75-0.69c-0.067 2.153-0.133 4.293-0.2 6.42-0.067 2.133-0.133 4.273-0.2 6.42v0c0.62-0.52 1.32-0.917 2.1-1.19 0.787-0.28 1.593-0.467 2.42-0.56 0.833-0.1 1.673-0.15 2.52-0.15 0.847 0 1.66 0 2.44 0v0c1.173 0 2.5 0.04 3.98 0.12 1.48 0.08 2.893 0.31 4.24 0.69 1.353 0.373 2.55 0.967 3.59 1.78 1.047 0.813 1.747 1.953 2.1 3.42v0c0.033 0.06 0.05 0.123 0.05 0.19 0 0.067 0 0.133 0 0.2zM319.29 23.65v0c0 0.26 0 0.513 0 0.76 0 0.247-0.017 0.5-0.05 0.76v0c-0.033 0.453-0.117 1.2-0.25 2.24-0.127 1.047-0.303 2.13-0.53 3.25-0.233 1.127-0.51 2.16-0.83 3.1-0.327 0.947-0.687 1.55-1.08 1.81v0c-0.193 0.127-0.853 0.24-1.98 0.34-1.12 0.1-2.487 0.197-4.1 0.29-1.613 0.1-3.363 0.183-5.25 0.25-1.887 0.06-3.683 0.117-5.39 0.17-1.713 0.047-3.21 0.087-4.49 0.12-1.287 0.033-2.143 0.05-2.57 0.05v0c-0.193 0-0.527 0-1 0-0.473 0-0.97-0.01-1.49-0.03-0.52-0.013-1.007-0.037-1.46-0.07-0.46-0.033-0.787-0.083-0.98-0.15v0c-0.453-0.16-0.91-0.427-1.37-0.8-0.453-0.373-0.877-0.797-1.27-1.27-0.387-0.473-0.737-0.963-1.05-1.47-0.307-0.5-0.527-0.98-0.66-1.44v0c-0.093-0.353-0.173-0.897-0.24-1.63-0.067-0.733-0.117-1.5-0.15-2.3-0.033-0.793-0.057-1.567-0.07-2.32-0.013-0.747-0.02-1.313-0.02-1.7v0c0-0.62 0.013-1.477 0.04-2.57 0.033-1.087 0.133-2.2 0.3-3.34 0.16-1.14 0.397-2.207 0.71-3.2 0.307-0.993 0.753-1.687 1.34-2.08v0c0.26-0.16 0.747-0.307 1.46-0.44 0.72-0.127 1.567-0.24 2.54-0.34 0.98-0.093 2.023-0.167 3.13-0.22 1.107-0.047 2.187-0.08 3.24-0.1 1.06-0.013 2.047-0.02 2.96-0.02 0.913 0 1.647 0.017 2.2 0.05v0c0.487 0.033 1.187 0.057 2.1 0.07 0.907 0.02 1.923 0.047 3.05 0.08 1.12 0.027 2.283 0.083 3.49 0.17 1.207 0.08 2.33 0.183 3.37 0.31 1.04 0.133 1.96 0.307 2.76 0.52 0.793 0.207 1.32 0.457 1.58 0.75v0c0.427 0.46 0.77 1.143 1.03 2.05 0.26 0.913 0.463 1.883 0.61 2.91 0.147 1.027 0.243 2.037 0.29 3.03 0.053 0.993 0.08 1.797 0.08 2.41zM308.93 24.68v0c0-0.393-0.013-0.85-0.04-1.37-0.033-0.52-0.083-1.047-0.15-1.58-0.067-0.54-0.163-1.063-0.29-1.57-0.133-0.5-0.297-0.913-0.49-1.24v0c-0.26-0.427-0.767-0.753-1.52-0.98-0.747-0.227-1.567-0.397-2.46-0.51-0.893-0.113-1.773-0.187-2.64-0.22-0.86-0.033-1.503-0.05-1.93-0.05v0c-0.227 0-0.633 0.007-1.22 0.02-0.587 0.02-1.197 0.047-1.83 0.08-0.633 0.033-1.227 0.09-1.78 0.17-0.553 0.08-0.913 0.17-1.08 0.27v0c-0.293 0.193-0.52 0.493-0.68 0.9-0.16 0.407-0.283 0.853-0.37 1.34-0.08 0.493-0.127 0.973-0.14 1.44-0.02 0.473-0.03 0.857-0.03 1.15v0c0 0.293 0.027 0.823 0.08 1.59 0.047 0.767 0.11 1.58 0.19 2.44 0.08 0.86 0.187 1.65 0.32 2.37 0.127 0.713 0.29 1.167 0.49 1.36v0c0.227 0.267 0.657 0.48 1.29 0.64 0.633 0.16 1.317 0.297 2.05 0.41 0.733 0.12 1.443 0.203 2.13 0.25 0.68 0.047 1.167 0.07 1.46 0.07v0c0.52 0 1.14-0.017 1.86-0.05 0.713-0.033 1.437-0.113 2.17-0.24 0.733-0.133 1.423-0.313 2.07-0.54 0.653-0.227 1.177-0.537 1.57-0.93v0c0.227-0.227 0.403-0.567 0.53-1.02 0.133-0.453 0.233-0.943 0.3-1.47 0.067-0.52 0.107-1.03 0.12-1.53 0.013-0.507 0.02-0.907 0.02-1.2z" fill="#ffffff" fill-rule="nonzero" stroke="none" stroke-width="1" stroke-linecap="butt" stroke-linejoin="miter" stroke-miterlimit="10" stroke-dasharray="" stroke-dashoffset="0" font-family="none" font-weight="none" font-size="none" text-anchor="none" style="mix-blend-mode: normal" data-fill-palette-color="primary" opacity="1"></path></g></svg></g></svg></g><g transform="matrix(1,0,0,1,41.80574109256462,130.34711424976123)"><svg viewBox="0 0 244.43135999999996 11.525359106598984" height="11.525359106598984" width="244.43135999999996"><g transform="matrix(1,0,0,1,0,0)"><svg width="244.43135999999996" viewBox="-2.490000009536743 -38.22999954223633 865.6199951171875 40.81999969482422" height="11.525359106598984" data-palette-color="#755bb4"><path d="M22.61-33.35L22.61-33.35Q22.61-32.13 21.66-31.13 20.7-30.13 19.36-29.37 18.02-28.61 16.6-28.13 15.19-27.64 14.26-27.44L14.26-27.44Q13.87-23.68 13.65-19.95 13.43-16.21 13.43-12.45L13.43-12.45Q13.43-10.45 13.53-8.5 13.62-6.54 13.62-4.59L13.62-4.59Q13.62-3.71 13.45-2.66 13.28-1.61 12.87-0.68 12.45 0.24 11.72 0.88 10.99 1.51 9.91 1.51L9.91 1.51Q8.64 1.51 7.89 0.81 7.13 0.1 6.71-0.93 6.3-1.95 6.15-3.1 6.01-4.25 6.01-5.18L6.01-5.18Q5.91-8.11 5.86-11.06 5.81-14.01 5.81-16.99L5.81-16.99Q5.81-19.48 5.83-21.88 5.86-24.27 5.86-26.76L5.86-26.76Q5.18-26.66 4.47-26.61 3.76-26.56 3.03-26.56L3.03-26.56Q2.44-26.56 1.49-26.68 0.54-26.81-0.34-27.12-1.22-27.44-1.86-28-2.49-28.56-2.49-29.44L-2.49-29.44Q-2.49-30.91-1.34-32.01-0.2-33.11 1.59-33.91 3.37-34.72 5.54-35.28 7.71-35.84 9.84-36.16 11.96-36.47 13.75-36.62 15.53-36.77 16.5-36.77L16.5-36.77Q17.43-36.77 18.48-36.69 19.53-36.62 20.46-36.28 21.39-35.94 22-35.25 22.61-34.57 22.61-33.35ZM31.25 1.61L31.25 1.61Q28.27 1.61 26.07 0.12 23.87-1.37 22.43-3.88 20.99-6.4 20.29-9.72 19.58-13.04 19.58-16.7L19.58-16.7Q19.58-20.12 20.33-23.63 21.09-27.15 22.65-29.98 24.22-32.81 26.61-34.62 29-36.43 32.32-36.43L32.32-36.43Q35.54-36.43 37.72-34.69 39.89-32.96 41.18-30.2 42.48-27.44 43.04-24.02 43.6-20.61 43.6-17.19L43.6-17.19Q43.6-13.38 42.84-9.99 42.09-6.59 40.55-4 39.01-1.42 36.69 0.1 34.37 1.61 31.25 1.61ZM31.83-25.63L31.83-25.63Q30.91-25.63 30.25-24.9 29.59-24.17 29.15-22.97 28.71-21.78 28.51-20.29 28.32-18.8 28.32-17.29L28.32-17.29Q28.32-15.58 28.54-13.87 28.76-12.16 29.2-10.79 29.64-9.42 30.3-8.59 30.95-7.76 31.88-7.76L31.88-7.76Q32.96-7.76 33.59-8.84 34.23-9.91 34.59-11.43 34.96-12.94 35.08-14.55 35.2-16.16 35.2-17.24L35.2-17.24Q35.2-18.55 35.03-20.02 34.86-21.48 34.47-22.73 34.08-23.97 33.44-24.8 32.81-25.63 31.83-25.63ZM71.48-21.97L71.48-21.97Q71.48-17.68 69.72-13.7 67.96-9.72 65.01-6.64 62.06-3.56 58.12-1.73 54.19 0.1 49.85 0.1L49.85 0.1 49.75 0.1Q48.87 0.1 48.31-0.71 47.75-1.51 47.36-2.73 46.97-3.96 46.77-5.47 46.58-6.98 46.48-8.42 46.38-9.86 46.38-11.01 46.38-12.16 46.38-12.74L46.38-12.74Q46.38-14.4 46.43-16.04 46.48-17.68 46.58-19.34L46.58-19.34Q46.58-19.87 46.65-20.92 46.72-21.97 46.82-23.29 46.92-24.61 47.07-26.05 47.21-27.49 47.38-28.74 47.55-29.98 47.72-30.93 47.9-31.88 48.14-32.23L48.14-32.23Q48.77-33.3 50.09-34.13 51.41-34.96 52.95-35.5 54.49-36.04 56.07-36.3 57.66-36.57 58.83-36.57L58.83-36.57Q62.06-36.57 64.42-35.38 66.79-34.18 68.38-32.15 69.97-30.13 70.72-27.49 71.48-24.85 71.48-21.97ZM63.28-20.56L63.28-20.56Q63.28-21.63 62.89-22.75 62.5-23.88 61.79-24.8 61.08-25.73 60.08-26.29 59.08-26.86 57.86-26.86L57.86-26.86Q56.83-26.86 55.76-26.37L55.76-26.37Q55.51-26.22 55.32-25.46 55.12-24.71 55-23.63 54.88-22.56 54.78-21.29 54.68-20.02 54.66-18.87 54.63-17.72 54.61-16.85 54.58-15.97 54.58-15.67L54.58-15.67Q54.58-15.19 54.58-14.23 54.58-13.28 54.66-12.35 54.73-11.43 54.83-10.74 54.93-10.06 55.17-10.06L55.17-10.06Q56.64-10.06 58.08-11.21 59.52-12.35 60.69-14.01 61.86-15.67 62.57-17.48 63.28-19.29 63.28-20.56ZM84.86 1.61L84.86 1.61Q81.88 1.61 79.68 0.12 77.48-1.37 76.04-3.88 74.6-6.4 73.89-9.72 73.19-13.04 73.19-16.7L73.19-16.7Q73.19-20.12 73.94-23.63 74.7-27.15 76.26-29.98 77.82-32.81 80.22-34.62 82.61-36.43 85.93-36.43L85.93-36.43Q89.15-36.43 91.33-34.69 93.5-32.96 94.79-30.2 96.09-27.44 96.65-24.02 97.21-20.61 97.21-17.19L97.21-17.19Q97.21-13.38 96.45-9.99 95.7-6.59 94.16-4 92.62-1.42 90.3 0.1 87.98 1.61 84.86 1.61ZM85.44-25.63L85.44-25.63Q84.51-25.63 83.85-24.9 83.2-24.17 82.76-22.97 82.32-21.78 82.12-20.29 81.93-18.8 81.93-17.29L81.93-17.29Q81.93-15.58 82.15-13.87 82.37-12.16 82.81-10.79 83.24-9.42 83.9-8.59 84.56-7.76 85.49-7.76L85.49-7.76Q86.56-7.76 87.2-8.84 87.83-9.91 88.2-11.43 88.57-12.94 88.69-14.55 88.81-16.16 88.81-17.24L88.81-17.24Q88.81-18.55 88.64-20.02 88.47-21.48 88.08-22.73 87.69-23.97 87.05-24.8 86.42-25.63 85.44-25.63ZM135-6.74L135-6.74Q135-5.52 134-4.44 133-3.37 131.41-2.49 129.82-1.61 127.87-0.95 125.92-0.29 124.01 0.17 122.11 0.63 120.42 0.88 118.74 1.12 117.76 1.12L117.76 1.12Q116.83 1.12 115.78 0.95 114.73 0.78 114.05 0.2L114.05 0.2Q113.66-0.1 113.37-1.12 113.07-2.15 112.8-3.56 112.54-4.98 112.34-6.62 112.15-8.25 112.02-9.81 111.9-11.38 111.83-12.7 111.76-14.01 111.76-14.75L111.76-14.75Q111.76-15.97 111.83-17.7 111.9-19.43 112.05-21.41 112.19-23.39 112.44-25.44 112.68-27.49 113-29.32 113.32-31.15 113.78-32.62 114.25-34.08 114.78-34.91L114.78-34.91Q115.71-36.23 117.13-36.23L117.13-36.23Q118.1-36.23 118.79-35.57 119.47-34.91 119.88-33.86 120.3-32.81 120.52-31.52 120.74-30.22 120.84-28.96 120.93-27.69 120.93-26.61 120.93-25.54 120.93-24.9L120.93-24.9Q120.93-21.09 120.76-17.36 120.59-13.62 120.59-9.81L120.59-9.81 120.59-7.91Q122.79-8.59 125.38-9.2 127.97-9.81 130.31-9.81L130.31-9.81Q131.14-9.81 131.99-9.72 132.85-9.62 133.51-9.3 134.17-8.98 134.58-8.37 135-7.76 135-6.74ZM147.4 1.61L147.4 1.61Q144.42 1.61 142.22 0.12 140.02-1.37 138.58-3.88 137.14-6.4 136.44-9.72 135.73-13.04 135.73-16.7L135.73-16.7Q135.73-20.12 136.48-23.63 137.24-27.15 138.8-29.98 140.37-32.81 142.76-34.62 145.15-36.43 148.47-36.43L148.47-36.43Q151.69-36.43 153.87-34.69 156.04-32.96 157.33-30.2 158.63-27.44 159.19-24.02 159.75-20.61 159.75-17.19L159.75-17.19Q159.75-13.38 158.99-9.99 158.24-6.59 156.7-4 155.16-1.42 152.84 0.1 150.52 1.61 147.4 1.61ZM147.98-25.63L147.98-25.63Q147.06-25.63 146.4-24.9 145.74-24.17 145.3-22.97 144.86-21.78 144.66-20.29 144.47-18.8 144.47-17.29L144.47-17.29Q144.47-15.58 144.69-13.87 144.91-12.16 145.35-10.79 145.79-9.42 146.44-8.59 147.1-7.76 148.03-7.76L148.03-7.76Q149.11-7.76 149.74-8.84 150.38-9.91 150.74-11.43 151.11-12.94 151.23-14.55 151.35-16.16 151.35-17.24L151.35-17.24Q151.35-18.55 151.18-20.02 151.01-21.48 150.62-22.73 150.23-23.97 149.59-24.8 148.96-25.63 147.98-25.63ZM186.75-7.91L186.75-7.91Q186.26-8.74 185.92-9.62 185.58-10.5 185.48-11.3 185.38-12.11 185.6-12.82 185.82-13.53 186.5-14.01L186.5-14.01Q187.04-14.4 187.72-14.31 188.41-14.21 189.19-13.72L189.19-13.72Q189.29-14.7 189.34-15.63 189.38-16.55 189.38-17.24L189.38-17.24Q189.38-18.55 189.21-20.02 189.04-21.48 188.65-22.73 188.26-23.97 187.63-24.8 186.99-25.63 186.02-25.63L186.02-25.63Q185.09-25.63 184.43-24.9 183.77-24.17 183.33-22.97 182.89-21.78 182.69-20.29 182.5-18.8 182.5-17.29L182.5-17.29Q182.5-15.58 182.72-13.87 182.94-12.16 183.38-10.79 183.82-9.42 184.48-8.59 185.14-7.76 186.06-7.76L186.06-7.76Q186.45-7.76 186.75-7.91ZM195.83-6.3L196.12-5.91Q196.61-5.22 197.2-4.17 197.78-3.13 198.1-2.03 198.42-0.93 198.37 0.05 198.32 1.03 197.54 1.61L197.54 1.61Q196.95 2.05 196.27 1.98 195.59 1.9 194.88 1.54 194.17 1.17 193.44 0.56 192.7-0.05 192.02-0.78L192.02-0.78Q190.7 0.34 189.07 0.98 187.43 1.61 185.43 1.61L185.43 1.61Q182.45 1.61 180.25 0.12 178.06-1.37 176.62-3.88 175.18-6.4 174.47-9.72 173.76-13.04 173.76-16.7L173.76-16.7Q173.76-20.12 174.52-23.63 175.27-27.15 176.84-29.98 178.4-32.81 180.79-34.62 183.18-36.43 186.5-36.43L186.5-36.43Q189.73-36.43 191.9-34.69 194.07-32.96 195.37-30.2 196.66-27.44 197.22-24.02 197.78-20.61 197.78-17.19L197.78-17.19Q197.78-14.16 197.29-11.4 196.81-8.64 195.83-6.3L195.83-6.3ZM227.03-17.14L227.03-17.14Q227.03-15.14 226.83-13.01 226.64-10.89 226.15-8.89 225.66-6.88 224.81-5.1 223.95-3.32 222.63-1.98 221.32-0.63 219.46 0.15 217.6 0.93 215.11 0.93L215.11 0.93Q211.45 0.93 208.74-0.78 206.03-2.49 204.23-5.15 202.42-7.81 201.54-11.11 200.66-14.4 200.66-17.63L200.66-17.63Q200.66-17.97 200.66-18.26 200.66-18.55 200.71-18.8L200.71-18.8Q200.76-19.82 200.88-21.58 201-23.34 201.3-25.34 201.59-27.34 202.05-29.44 202.52-31.54 203.27-33.2 204.03-34.86 205.1-35.94 206.18-37.01 207.64-37.01L207.64-37.01Q208.72-37.01 209.45-36.38 210.18-35.74 210.65-34.79 211.11-33.84 211.31-32.79 211.5-31.74 211.5-30.86L211.5-30.86Q211.5-29.54 211.23-28.2 210.96-26.86 210.72-25.54L210.72-25.54Q210.33-23.44 210.08-21.34 209.84-19.24 209.84-17.04L209.84-17.04Q209.84-15.92 209.96-14.31 210.08-12.7 210.57-11.21 211.06-9.72 211.96-8.67 212.87-7.62 214.43-7.62L214.43-7.62Q215.94-7.62 216.85-8.64 217.75-9.67 218.19-11.08 218.63-12.5 218.75-14.06 218.87-15.63 218.87-16.75L218.87-16.75Q218.87-19.97 218.34-23.12 217.8-26.27 216.92-29.39L216.92-29.39Q216.68-30.22 216.51-31.05 216.33-31.88 216.33-32.71L216.33-32.71Q216.33-34.08 217.14-35.11 217.95-36.13 219.41-36.13L219.41-36.13Q220.63-36.13 221.68-35.18 222.73-34.23 223.56-32.69 224.39-31.15 225-29.25 225.61-27.34 226.05-25.46 226.49-23.58 226.71-21.88 226.93-20.17 226.98-19.09L226.98-19.09Q227.03-18.6 227.03-18.14 227.03-17.68 227.03-17.14ZM251.54-7.67L251.54-7.67Q251.54-6.74 251.05-5.86L251.05-5.86Q250.56-5.03 248.75-3.91 246.95-2.78 244.75-1.78 242.55-0.78 240.5-0.07 238.45 0.63 237.48 0.63L237.48 0.63Q236.79 0.63 235.86 0.32 234.94 0 234.01-0.49 233.08-0.98 232.32-1.61 231.57-2.25 231.23-2.83L231.23-2.83Q231.03-3.17 230.86-4.2 230.69-5.22 230.57-6.59 230.44-7.96 230.35-9.5 230.25-11.04 230.18-12.43 230.1-13.82 230.08-14.89 230.05-15.97 230.05-16.46L230.05-16.46Q230.05-18.26 230.18-20.61 230.3-22.95 230.64-25.32 230.98-27.69 231.64-29.86 232.3-32.03 233.42-33.54L233.42-33.54Q233.76-33.98 234.79-34.47 235.81-34.96 237.21-35.4 238.6-35.84 240.21-36.23 241.82-36.62 243.31-36.89 244.8-37.16 246.02-37.33 247.24-37.5 247.88-37.5L247.88-37.5Q248.61-37.5 249.27-37.18 249.93-36.87 250.39-36.33 250.85-35.79 251.12-35.13 251.39-34.47 251.39-33.74L251.39-33.74Q251.39-33.11 251.22-32.67 251.05-32.23 250.71-31.69L250.71-31.69Q250.22-31.05 248.66-30.18 247.09-29.3 245.26-28.44 243.43-27.59 241.75-26.9 240.06-26.22 239.38-25.93L239.38-25.93Q239.18-24.8 238.96-23.66 238.74-22.51 238.65-21.34L238.65-21.34Q240.16-22.12 242.06-22.8 243.97-23.49 245.68-23.49L245.68-23.49Q249.14-23.49 249.14-20.07L249.14-20.07Q249.14-19.24 248.83-18.6 248.51-17.97 248-17.48 247.48-16.99 246.83-16.63 246.17-16.26 245.53-15.92L245.53-15.92Q243.97-15.09 242.26-14.48 240.55-13.87 238.84-13.28L238.84-13.28Q238.74-12.89 238.65-12.43 238.55-11.96 238.55-11.52L238.55-11.52Q238.55-10.84 238.65-10.16 238.74-9.47 238.84-8.79L238.84-8.79Q239.43-8.98 240.72-9.42 242.02-9.86 243.43-10.3 244.85-10.74 246.17-11.06 247.48-11.38 248.12-11.38L248.12-11.38Q248.85-11.38 249.49-11.06 250.12-10.74 250.56-10.23 251-9.72 251.27-9.03 251.54-8.35 251.54-7.67ZM293.92-20.95L293.92-20.95Q293.92-19.87 293.82-17.9 293.72-15.92 293.45-13.55 293.18-11.18 292.69-8.72 292.21-6.25 291.43-4.25 290.64-2.25 289.52-0.95 288.4 0.34 286.84 0.34L286.84 0.34Q285.37 0.34 284.15-0.51 282.93-1.37 281.95-2.61 280.98-3.86 280.24-5.27 279.51-6.69 279.02-7.86L279.02-7.86Q278-10.35 276.97-12.77 275.95-15.19 275.02-17.68L275.02-17.68 275.02-16.31Q275.02-14.21 274.99-12.13 274.97-10.06 274.68-8.01L274.68-8.01Q274.58-7.18 274.46-6.08 274.34-4.98 274.09-3.91 273.85-2.83 273.38-1.9 272.92-0.98 272.14-0.54L272.14-0.54Q271.7-0.29 271.33-0.24 270.97-0.2 270.53-0.1L270.53-0.1 270.38-0.1Q269.26-0.1 268.48-0.85 267.69-1.61 267.16-2.81 266.62-4 266.3-5.49 265.99-6.98 265.81-8.42 265.64-9.86 265.6-11.08 265.55-12.3 265.55-13.04L265.55-13.04Q265.55-14.16 265.64-16.33 265.74-18.51 266.06-21.14 266.38-23.78 266.89-26.56 267.4-29.35 268.23-31.62 269.06-33.89 270.23-35.33 271.41-36.77 272.97-36.77L272.97-36.77Q274.48-36.77 275.68-35.6 276.87-34.42 277.8-32.81 278.73-31.2 279.36-29.44 280-27.69 280.44-26.51L280.44-26.51Q281.27-24.22 282.05-21.95 282.83-19.68 283.56-17.33L283.56-17.33Q283.61-17.24 283.76-16.8 283.91-16.36 284.1-15.82L284.1-15.82Q284.3-15.23 284.59-14.5L284.59-14.5Q284.59-15.14 284.56-15.41 284.54-15.67 284.54-15.89 284.54-16.11 284.54-16.46 284.54-16.8 284.54-17.53L284.54-17.53Q284.49-19.14 284.47-20.75 284.44-22.36 284.44-23.93L284.44-23.93Q284.44-24.61 284.47-25.83 284.49-27.05 284.61-28.44 284.74-29.83 284.98-31.25 285.22-32.67 285.69-33.81 286.15-34.96 286.86-35.69 287.57-36.43 288.59-36.43L288.59-36.43Q289.81-36.43 290.69-35.5 291.57-34.57 292.16-33.13 292.74-31.69 293.09-29.91 293.43-28.13 293.62-26.42 293.82-24.71 293.87-23.24 293.92-21.78 293.92-20.95ZM308.32 1.61L308.32 1.61Q305.34 1.61 303.14 0.12 300.94-1.37 299.5-3.88 298.06-6.4 297.36-9.72 296.65-13.04 296.65-16.7L296.65-16.7Q296.65-20.12 297.4-23.63 298.16-27.15 299.72-29.98 301.29-32.81 303.68-34.62 306.07-36.43 309.39-36.43L309.39-36.43Q312.61-36.43 314.79-34.69 316.96-32.96 318.25-30.2 319.55-27.44 320.11-24.02 320.67-20.61 320.67-17.19L320.67-17.19Q320.67-13.38 319.91-9.99 319.16-6.59 317.62-4 316.08-1.42 313.76 0.1 311.44 1.61 308.32 1.61ZM308.9-25.63L308.9-25.63Q307.98-25.63 307.32-24.9 306.66-24.17 306.22-22.97 305.78-21.78 305.58-20.29 305.39-18.8 305.39-17.29L305.39-17.29Q305.39-15.58 305.61-13.87 305.83-12.16 306.27-10.79 306.71-9.42 307.36-8.59 308.02-7.76 308.95-7.76L308.95-7.76Q310.03-7.76 310.66-8.84 311.3-9.91 311.66-11.43 312.03-12.94 312.15-14.55 312.27-16.16 312.27-17.24L312.27-17.24Q312.27-18.55 312.1-20.02 311.93-21.48 311.54-22.73 311.15-23.97 310.51-24.8 309.88-25.63 308.9-25.63ZM357.82-26.17L357.82-26.17Q357.82-23.54 356.68-21 355.53-18.46 353.62-16.43 351.72-14.4 349.28-13.11 346.84-11.82 344.25-11.67L344.25-11.67Q344.2-10.79 344.18-9.45 344.15-8.11 344.01-6.64 343.86-5.18 343.59-3.71 343.32-2.25 342.81-1.07 342.3 0.1 341.49 0.83 340.69 1.56 339.51 1.56L339.51 1.56Q338.15 1.56 337.34 0.66 336.53-0.24 336.12-1.51 335.7-2.78 335.56-4.17 335.41-5.57 335.36-6.54L335.36-6.54Q335.27-7.96 335.24-9.33 335.22-10.69 335.22-12.11L335.22-12.11Q335.22-12.74 335.22-14.48 335.22-16.21 335.24-18.43 335.27-20.65 335.31-23.07 335.36-25.49 335.46-27.56 335.56-29.64 335.68-31.1 335.8-32.57 336-32.81L336-32.81Q336.05-32.86 336.29-33.03 336.53-33.2 336.83-33.37 337.12-33.54 337.36-33.69 337.61-33.84 337.71-33.89L337.71-33.89Q339.95-35.16 342.64-36.08 345.32-37.01 347.96-37.01L347.96-37.01Q350.21-37.01 352.04-36.11 353.87-35.21 355.16-33.72 356.46-32.23 357.14-30.25 357.82-28.27 357.82-26.17ZM349.38-25.05L349.38-25.05Q349.38-26.03 348.91-26.76 348.45-27.49 347.37-27.49L347.37-27.49Q346.45-27.49 345.52-27.12 344.59-26.76 343.81-26.37L343.81-26.37Q343.96-24.66 344.08-23.05 344.2-21.44 344.1-19.73L344.1-19.73Q344.88-20.12 345.81-20.63 346.74-21.14 347.52-21.78 348.3-22.41 348.84-23.22 349.38-24.02 349.38-25.05ZM382.82-25.68L382.82-25.68Q382.82-22.31 381.26-19.63 379.7-16.94 377.11-14.89L377.11-14.89Q377.89-13.72 378.72-12.16 379.55-10.6 380.21-8.86 380.87-7.13 381.28-5.4 381.7-3.66 381.7-2.2L381.7-2.2Q381.7-0.63 380.94 0.61 380.18 1.86 378.38 1.86L378.38 1.86Q376.86 1.86 375.77 0.39 374.67-1.07 373.81-3.1 372.96-5.13 372.25-7.23 371.54-9.33 370.91-10.6L370.91-10.6Q370.03-10.3 369.2-9.94 368.37-9.57 367.49-9.23L367.49-9.23Q367.44-8.15 367.32-6.27 367.2-4.39 366.78-2.54 366.37-0.68 365.54 0.68 364.71 2.05 363.24 2.05L363.24 2.05Q361.63 2.05 360.75 0.73 359.87-0.59 359.51-2.39 359.14-4.2 359.09-6.08 359.04-7.96 359.04-9.03L359.04-9.03Q359.04-11.33 359.14-13.55 359.24-15.77 359.24-18.07L359.24-18.07Q359.24-20.17 359.16-22.27 359.09-24.37 359.09-26.51L359.09-26.51Q359.09-27 359.09-27.76 359.09-28.52 359.16-29.32 359.24-30.13 359.34-30.86 359.43-31.59 359.68-32.03L359.68-32.03Q360.17-33.06 361.9-33.98 363.63-34.91 365.71-35.62 367.78-36.33 369.76-36.74 371.74-37.16 372.71-37.16L372.71-37.16Q375.2-37.16 377.11-36.23 379.01-35.3 380.28-33.72 381.55-32.13 382.19-30.05 382.82-27.98 382.82-25.68ZM373.79-25L373.79-25Q373.79-26.27 373.2-26.93 372.62-27.59 371.3-27.59L371.3-27.59Q370.32-27.59 369.32-27.25 368.32-26.9 367.49-26.46L367.49-26.46Q367.68-22.61 367.64-18.8L367.64-18.8Q368.66-19.14 369.74-19.68 370.81-20.21 371.71-21 372.62-21.78 373.2-22.75 373.79-23.73 373.79-25ZM405.82-7.67L405.82-7.67Q405.82-6.74 405.33-5.86L405.33-5.86Q404.84-5.03 403.03-3.91 401.23-2.78 399.03-1.78 396.83-0.78 394.78-0.07 392.73 0.63 391.75 0.63L391.75 0.63Q391.07 0.63 390.14 0.32 389.22 0 388.29-0.49 387.36-0.98 386.6-1.61 385.85-2.25 385.5-2.83L385.5-2.83Q385.31-3.17 385.14-4.2 384.97-5.22 384.85-6.59 384.72-7.96 384.63-9.5 384.53-11.04 384.45-12.43 384.38-13.82 384.36-14.89 384.33-15.97 384.33-16.46L384.33-16.46Q384.33-18.26 384.45-20.61 384.58-22.95 384.92-25.32 385.26-27.69 385.92-29.86 386.58-32.03 387.7-33.54L387.7-33.54Q388.04-33.98 389.07-34.47 390.09-34.96 391.49-35.4 392.88-35.84 394.49-36.23 396.1-36.62 397.59-36.89 399.08-37.16 400.3-37.33 401.52-37.5 402.15-37.5L402.15-37.5Q402.89-37.5 403.55-37.18 404.21-36.87 404.67-36.33 405.13-35.79 405.4-35.13 405.67-34.47 405.67-33.74L405.67-33.74Q405.67-33.11 405.5-32.67 405.33-32.23 404.99-31.69L404.99-31.69Q404.5-31.05 402.94-30.18 401.37-29.3 399.54-28.44 397.71-27.59 396.03-26.9 394.34-26.22 393.66-25.93L393.66-25.93Q393.46-24.8 393.24-23.66 393.02-22.51 392.93-21.34L392.93-21.34Q394.44-22.12 396.34-22.8 398.25-23.49 399.96-23.49L399.96-23.49Q403.42-23.49 403.42-20.07L403.42-20.07Q403.42-19.24 403.11-18.6 402.79-17.97 402.28-17.48 401.76-16.99 401.1-16.63 400.45-16.26 399.81-15.92L399.81-15.92Q398.25-15.09 396.54-14.48 394.83-13.87 393.12-13.28L393.12-13.28Q393.02-12.89 392.93-12.43 392.83-11.96 392.83-11.52L392.83-11.52Q392.83-10.84 392.93-10.16 393.02-9.47 393.12-8.79L393.12-8.79Q393.71-8.98 395-9.42 396.3-9.86 397.71-10.3 399.13-10.74 400.45-11.06 401.76-11.38 402.4-11.38L402.4-11.38Q403.13-11.38 403.77-11.06 404.4-10.74 404.84-10.23 405.28-9.72 405.55-9.03 405.82-8.35 405.82-7.67ZM423.49-34.28L423.49-34.28Q423.49-33.15 422.78-32.32 422.07-31.49 421.1-30.96L421.1-30.96Q420.22-30.42 419.29-29.81 418.36-29.2 417.58-28.44 416.8-27.69 416.31-26.76 415.82-25.83 415.82-24.66L415.82-24.66Q415.82-23.63 416.31-22.8 416.8-21.97 417.51-21.17 418.22-20.36 419.07-19.51 419.93-18.65 420.63-17.6 421.34-16.55 421.83-15.23 422.32-13.92 422.32-12.16L422.32-12.16Q422.32-10.94 421.81-9.4 421.29-7.86 420.41-6.3 419.54-4.74 418.34-3.27 417.14-1.81 415.8-0.66 414.46 0.49 412.99 1.2 411.53 1.9 410.16 1.9L410.16 1.9Q408.65 1.9 407.47 1.07 406.3 0.24 406.3-1.42L406.3-1.42Q406.3-2.54 406.84-3.49 407.38-4.44 408.16-5.32 408.94-6.2 409.89-7.03 410.84-7.86 411.62-8.69 412.41-9.52 412.94-10.42 413.48-11.33 413.48-12.35L413.48-12.35Q413.48-13.77 412.48-15.26 411.48-16.75 410.26-18.33 409.04-19.92 408.04-21.58 407.04-23.24 407.04-24.95L407.04-24.95Q407.04-27.05 408.16-29.37 409.28-31.69 411.04-33.62 412.8-35.55 414.99-36.82 417.19-38.09 419.34-38.09L419.34-38.09Q421.05-38.09 422.27-37.06 423.49-36.04 423.49-34.28ZM442.09-33.15L442.09-33.15Q442.09-32.23 441.68-31.49 441.26-30.76 440.58-30.25 439.89-29.74 439.06-29.39 438.23-29.05 437.45-28.91L437.45-28.91Q437.35-23.39 437.04-18.26 436.72-13.13 436.04-7.67L436.04-7.67 436.33-7.67Q437.11-7.67 437.87-7.5 438.62-7.32 439.23-6.91 439.85-6.49 440.21-5.88 440.58-5.27 440.58-4.39L440.58-4.39Q440.58-3.27 439.87-2.44 439.16-1.61 438.01-1.03 436.87-0.44 435.45-0.05 434.03 0.34 432.62 0.56 431.2 0.78 429.93 0.88 428.66 0.98 427.88 0.98L427.88 0.98Q427.3 0.98 426.44 0.93 425.59 0.88 424.83 0.63 424.07 0.39 423.54-0.1 423-0.59 423-1.42L423-1.42Q423-2.44 423.41-3.25 423.83-4.05 424.51-4.69 425.2-5.32 426.05-5.71 426.91-6.1 427.78-6.3L427.78-6.3Q428.13-8.98 428.42-11.65 428.71-14.31 428.81-17.04L428.81-17.04Q428.91-19.82 429.01-22.53 429.1-25.24 429.2-27.98L429.2-27.98Q428.86-27.93 428.57-27.91 428.27-27.88 428.03-27.88L428.03-27.88Q427.35-27.88 426.56-28.03 425.78-28.17 425.1-28.54 424.42-28.91 423.95-29.44 423.49-29.98 423.49-30.81L423.49-30.81Q423.49-32.47 424.88-33.54 426.27-34.62 428.2-35.21 430.13-35.79 432.13-36.01 434.13-36.23 435.35-36.23L435.35-36.23Q436.04-36.23 437.16-36.13 438.28-36.04 439.38-35.69 440.48-35.35 441.29-34.77 442.09-34.18 442.09-33.15ZM463.91-33.35L463.91-33.35Q463.91-32.13 462.96-31.13 462.01-30.13 460.67-29.37 459.33-28.61 457.91-28.13 456.49-27.64 455.57-27.44L455.57-27.44Q455.17-23.68 454.95-19.95 454.74-16.21 454.74-12.45L454.74-12.45Q454.74-10.45 454.83-8.5 454.93-6.54 454.93-4.59L454.93-4.59Q454.93-3.71 454.76-2.66 454.59-1.61 454.17-0.68 453.76 0.24 453.03 0.88 452.29 1.51 451.22 1.51L451.22 1.51Q449.95 1.51 449.19 0.81 448.44 0.1 448.02-0.93 447.61-1.95 447.46-3.1 447.31-4.25 447.31-5.18L447.31-5.18Q447.22-8.11 447.17-11.06 447.12-14.01 447.12-16.99L447.12-16.99Q447.12-19.48 447.14-21.88 447.17-24.27 447.17-26.76L447.17-26.76Q446.48-26.66 445.78-26.61 445.07-26.56 444.33-26.56L444.33-26.56Q443.75-26.56 442.8-26.68 441.84-26.81 440.97-27.12 440.09-27.44 439.45-28 438.82-28.56 438.82-29.44L438.82-29.44Q438.82-30.91 439.96-32.01 441.11-33.11 442.89-33.91 444.68-34.72 446.85-35.28 449.02-35.84 451.15-36.16 453.27-36.47 455.05-36.62 456.83-36.77 457.81-36.77L457.81-36.77Q458.74-36.77 459.79-36.69 460.84-36.62 461.77-36.28 462.69-35.94 463.3-35.25 463.91-34.57 463.91-33.35ZM485.54-7.23L485.54-7.23Q485.54-6.25 485.37-4.88 485.2-3.52 484.71-2.27 484.22-1.03 483.39-0.17 482.56 0.68 481.2 0.68L481.2 0.68Q479.39 0.68 478.49-0.63 477.58-1.95 477.19-3.78 476.8-5.62 476.73-7.52 476.66-9.42 476.61-10.55L476.61-10.55Q473.09-9.96 469.67-9.52L469.67-9.52Q469.58-8.4 469.26-6.74 468.94-5.08 468.28-3.54 467.62-2 466.57-0.88 465.52 0.24 464.01 0.24L464.01 0.24Q462.84 0.24 462.18-0.61 461.52-1.46 461.18-2.64 460.84-3.81 460.76-5.05 460.69-6.3 460.69-7.13L460.69-7.13Q460.69-9.91 461.13-12.62 461.57-15.33 462.15-18.02L462.15-18.02Q462.45-19.43 462.94-21.34 463.42-23.24 464.13-25.27 464.84-27.29 465.79-29.27 466.74-31.25 467.97-32.81 469.19-34.38 470.75-35.35 472.31-36.33 474.22-36.33L474.22-36.33Q476.07-36.33 477.44-35.5 478.8-34.67 479.83-33.3 480.86-31.93 481.54-30.2 482.22-28.47 482.69-26.68 483.15-24.9 483.47-23.19 483.79-21.48 484.03-20.17L484.03-20.17Q484.66-16.99 485.1-13.75 485.54-10.5 485.54-7.23ZM476.12-17.68L476.12-19.09Q476.12-19.68 476.05-21.02 475.97-22.36 475.73-23.71 475.48-25.05 474.97-26.1 474.46-27.15 473.58-27.15L473.58-27.15Q473.09-27.15 472.65-26.49 472.21-25.83 471.87-24.83 471.53-23.83 471.26-22.61 470.99-21.39 470.8-20.26 470.6-19.14 470.5-18.24 470.41-17.33 470.36-16.94L470.36-16.94Q473.29-17.19 476.12-17.68L476.12-17.68ZM504.19-34.28L504.19-34.28Q504.19-33.15 503.49-32.32 502.78-31.49 501.8-30.96L501.8-30.96Q500.92-30.42 499.99-29.81 499.07-29.2 498.28-28.44 497.5-27.69 497.02-26.76 496.53-25.83 496.53-24.66L496.53-24.66Q496.53-23.63 497.02-22.8 497.5-21.97 498.21-21.17 498.92-20.36 499.77-19.51 500.63-18.65 501.34-17.6 502.04-16.55 502.53-15.23 503.02-13.92 503.02-12.16L503.02-12.16Q503.02-10.94 502.51-9.4 502-7.86 501.12-6.3 500.24-4.74 499.04-3.27 497.85-1.81 496.5-0.66 495.16 0.49 493.7 1.2 492.23 1.9 490.86 1.9L490.86 1.9Q489.35 1.9 488.18 1.07 487.01 0.24 487.01-1.42L487.01-1.42Q487.01-2.54 487.54-3.49 488.08-4.44 488.86-5.32 489.64-6.2 490.59-7.03 491.55-7.86 492.33-8.69 493.11-9.52 493.65-10.42 494.18-11.33 494.18-12.35L494.18-12.35Q494.18-13.77 493.18-15.26 492.18-16.75 490.96-18.33 489.74-19.92 488.74-21.58 487.74-23.24 487.74-24.95L487.74-24.95Q487.74-27.05 488.86-29.37 489.98-31.69 491.74-33.62 493.5-35.55 495.7-36.82 497.89-38.09 500.04-38.09L500.04-38.09Q501.75-38.09 502.97-37.06 504.19-36.04 504.19-34.28ZM539.69-33.59L539.69-33.59Q539.69-31.45 539.12-28.86 538.56-26.27 537.68-23.63 536.81-21 535.78-18.51 534.75-16.02 533.88-14.11L533.88-14.11Q533.39-13.04 532.68-11.4 531.97-9.77 531.09-7.91 530.21-6.05 529.21-4.17 528.21-2.29 527.14-0.81 526.06 0.68 524.94 1.64 523.82 2.59 522.69 2.59L522.69 2.59Q521.13 2.59 520.47 1.44 519.81 0.29 519.81-1.12L519.81-1.12Q519.81-2.49 520.28-4.03 520.74-5.57 521.45-7.08 522.16-8.59 523.01-10.01 523.87-11.43 524.6-12.55L524.6-12.55Q523.62-12.79 522.69-13.43 521.77-14.06 521.33-14.94L521.33-14.94Q520.55-16.65 519.72-18.8 518.89-20.95 518.23-23.17 517.57-25.39 517.13-27.61 516.69-29.83 516.69-31.69L516.69-31.69Q516.69-32.57 516.88-33.62 517.08-34.67 517.54-35.57 518.01-36.47 518.76-37.08 519.52-37.7 520.64-37.7L520.64-37.7Q521.91-37.7 522.89-36.74 523.87-35.79 524.62-34.33 525.38-32.86 525.92-31.05 526.45-29.25 526.84-27.49 527.23-25.73 527.48-24.27 527.72-22.8 527.92-21.97L527.92-21.97Q528.11-22.71 528.58-24.19 529.04-25.68 529.7-27.49 530.36-29.3 531.21-31.2 532.07-33.11 533.02-34.67 533.97-36.23 535.05-37.23 536.12-38.23 537.24-38.23L537.24-38.23Q537.98-38.23 538.47-37.7 538.95-37.16 539.22-36.43 539.49-35.69 539.59-34.91 539.69-34.13 539.69-33.59ZM575.81-7.23L575.81-7.23Q575.81-6.25 575.64-4.88 575.47-3.52 574.98-2.27 574.5-1.03 573.67-0.17 572.84 0.68 571.47 0.68L571.47 0.68Q569.66 0.68 568.76-0.63 567.85-1.95 567.46-3.78 567.07-5.62 567-7.52 566.93-9.42 566.88-10.55L566.88-10.55Q563.36-9.96 559.94-9.52L559.94-9.52Q559.85-8.4 559.53-6.74 559.21-5.08 558.55-3.54 557.89-2 556.84-0.88 555.79 0.24 554.28 0.24L554.28 0.24Q553.11 0.24 552.45-0.61 551.79-1.46 551.45-2.64 551.11-3.81 551.03-5.05 550.96-6.3 550.96-7.13L550.96-7.13Q550.96-9.91 551.4-12.62 551.84-15.33 552.43-18.02L552.43-18.02Q552.72-19.43 553.21-21.34 553.69-23.24 554.4-25.27 555.11-27.29 556.06-29.27 557.02-31.25 558.24-32.81 559.46-34.38 561.02-35.35 562.58-36.33 564.49-36.33L564.49-36.33Q566.34-36.33 567.71-35.5 569.08-34.67 570.1-33.3 571.13-31.93 571.81-30.2 572.49-28.47 572.96-26.68 573.42-24.9 573.74-23.19 574.06-21.48 574.3-20.17L574.3-20.17Q574.93-16.99 575.37-13.75 575.81-10.5 575.81-7.23ZM566.39-17.68L566.39-19.09Q566.39-19.68 566.32-21.02 566.24-22.36 566-23.71 565.76-25.05 565.24-26.1 564.73-27.15 563.85-27.15L563.85-27.15Q563.36-27.15 562.92-26.49 562.48-25.83 562.14-24.83 561.8-23.83 561.53-22.61 561.26-21.39 561.07-20.26 560.87-19.14 560.77-18.24 560.68-17.33 560.63-16.94L560.63-16.94Q563.56-17.19 566.39-17.68L566.39-17.68ZM602.28-6.74L602.28-6.74Q602.28-5.52 601.28-4.44 600.27-3.37 598.69-2.49 597.1-1.61 595.15-0.95 593.19-0.29 591.29 0.17 589.39 0.63 587.7 0.88 586.02 1.12 585.04 1.12L585.04 1.12Q584.11 1.12 583.06 0.95 582.01 0.78 581.33 0.2L581.33 0.2Q580.94-0.1 580.65-1.12 580.35-2.15 580.08-3.56 579.82-4.98 579.62-6.62 579.42-8.25 579.3-9.81 579.18-11.38 579.11-12.7 579.03-14.01 579.03-14.75L579.03-14.75Q579.03-15.97 579.11-17.7 579.18-19.43 579.33-21.41 579.47-23.39 579.72-25.44 579.96-27.49 580.28-29.32 580.6-31.15 581.06-32.62 581.52-34.08 582.06-34.91L582.06-34.91Q582.99-36.23 584.41-36.23L584.41-36.23Q585.38-36.23 586.07-35.57 586.75-34.91 587.16-33.86 587.58-32.81 587.8-31.52 588.02-30.22 588.12-28.96 588.21-27.69 588.21-26.61 588.21-25.54 588.21-24.9L588.21-24.9Q588.21-21.09 588.04-17.36 587.87-13.62 587.87-9.81L587.87-9.81 587.87-7.91Q590.07-8.59 592.66-9.2 595.24-9.81 597.59-9.81L597.59-9.81Q598.42-9.81 599.27-9.72 600.13-9.62 600.79-9.3 601.45-8.98 601.86-8.37 602.28-7.76 602.28-6.74ZM637.92-26.17L637.92-26.17Q637.92-23.54 636.77-21 635.62-18.46 633.72-16.43 631.81-14.4 629.37-13.11 626.93-11.82 624.34-11.67L624.34-11.67Q624.29-10.79 624.27-9.45 624.24-8.11 624.1-6.64 623.95-5.18 623.68-3.71 623.41-2.25 622.9-1.07 622.39 0.1 621.58 0.83 620.78 1.56 619.61 1.56L619.61 1.56Q618.24 1.56 617.43 0.66 616.63-0.24 616.21-1.51 615.8-2.78 615.65-4.17 615.5-5.57 615.45-6.54L615.45-6.54Q615.36-7.96 615.33-9.33 615.31-10.69 615.31-12.11L615.31-12.11Q615.31-12.74 615.31-14.48 615.31-16.21 615.33-18.43 615.36-20.65 615.41-23.07 615.45-25.49 615.55-27.56 615.65-29.64 615.77-31.1 615.89-32.57 616.09-32.81L616.09-32.81Q616.14-32.86 616.38-33.03 616.63-33.2 616.92-33.37 617.21-33.54 617.46-33.69 617.7-33.84 617.8-33.89L617.8-33.89Q620.04-35.16 622.73-36.08 625.42-37.01 628.05-37.01L628.05-37.01Q630.3-37.01 632.13-36.11 633.96-35.21 635.25-33.72 636.55-32.23 637.23-30.25 637.92-28.27 637.92-26.17ZM629.47-25.05L629.47-25.05Q629.47-26.03 629-26.76 628.54-27.49 627.47-27.49L627.47-27.49Q626.54-27.49 625.61-27.12 624.68-26.76 623.9-26.37L623.9-26.37Q624.05-24.66 624.17-23.05 624.29-21.44 624.2-19.73L624.2-19.73Q624.98-20.12 625.9-20.63 626.83-21.14 627.61-21.78 628.39-22.41 628.93-23.22 629.47-24.02 629.47-25.05ZM660.37-7.67L660.37-7.67Q660.37-6.74 659.89-5.86L659.89-5.86Q659.4-5.03 657.59-3.91 655.78-2.78 653.59-1.78 651.39-0.78 649.34-0.07 647.29 0.63 646.31 0.63L646.31 0.63Q645.63 0.63 644.7 0.32 643.77 0 642.84-0.49 641.92-0.98 641.16-1.61 640.4-2.25 640.06-2.83L640.06-2.83Q639.87-3.17 639.7-4.2 639.52-5.22 639.4-6.59 639.28-7.96 639.18-9.5 639.09-11.04 639.01-12.43 638.94-13.82 638.91-14.89 638.89-15.97 638.89-16.46L638.89-16.46Q638.89-18.26 639.01-20.61 639.13-22.95 639.48-25.32 639.82-27.69 640.48-29.86 641.14-32.03 642.26-33.54L642.26-33.54Q642.6-33.98 643.63-34.47 644.65-34.96 646.04-35.4 647.43-35.84 649.05-36.23 650.66-36.62 652.15-36.89 653.64-37.16 654.86-37.33 656.08-37.5 656.71-37.5L656.71-37.5Q657.44-37.5 658.1-37.18 658.76-36.87 659.23-36.33 659.69-35.79 659.96-35.13 660.23-34.47 660.23-33.74L660.23-33.74Q660.23-33.11 660.06-32.67 659.89-32.23 659.54-31.69L659.54-31.69Q659.06-31.05 657.49-30.18 655.93-29.3 654.1-28.44 652.27-27.59 650.58-26.9 648.9-26.22 648.22-25.93L648.22-25.93Q648.02-24.8 647.8-23.66 647.58-22.51 647.48-21.34L647.48-21.34Q649-22.12 650.9-22.8 652.81-23.49 654.51-23.49L654.51-23.49Q657.98-23.49 657.98-20.07L657.98-20.07Q657.98-19.24 657.66-18.6 657.35-17.97 656.83-17.48 656.32-16.99 655.66-16.63 655-16.26 654.37-15.92L654.37-15.92Q652.81-15.09 651.1-14.48 649.39-13.87 647.68-13.28L647.68-13.28Q647.58-12.89 647.48-12.43 647.39-11.96 647.39-11.52L647.39-11.52Q647.39-10.84 647.48-10.16 647.58-9.47 647.68-8.79L647.68-8.79Q648.26-8.98 649.56-9.42 650.85-9.86 652.27-10.3 653.68-10.74 655-11.06 656.32-11.38 656.96-11.38L656.96-11.38Q657.69-11.38 658.32-11.06 658.96-10.74 659.4-10.23 659.84-9.72 660.11-9.03 660.37-8.35 660.37-7.67ZM673.26 1.61L673.26 1.61Q670.28 1.61 668.09 0.12 665.89-1.37 664.45-3.88 663.01-6.4 662.3-9.72 661.59-13.04 661.59-16.7L661.59-16.7Q661.59-20.12 662.35-23.63 663.11-27.15 664.67-29.98 666.23-32.81 668.62-34.62 671.02-36.43 674.34-36.43L674.34-36.43Q677.56-36.43 679.73-34.69 681.9-32.96 683.2-30.2 684.49-27.44 685.05-24.02 685.62-20.61 685.62-17.19L685.62-17.19Q685.62-13.38 684.86-9.99 684.1-6.59 682.56-4 681.03-1.42 678.71 0.1 676.39 1.61 673.26 1.61ZM673.85-25.63L673.85-25.63Q672.92-25.63 672.26-24.9 671.6-24.17 671.16-22.97 670.72-21.78 670.53-20.29 670.33-18.8 670.33-17.29L670.33-17.29Q670.33-15.58 670.55-13.87 670.77-12.16 671.21-10.79 671.65-9.42 672.31-8.59 672.97-7.76 673.9-7.76L673.9-7.76Q674.97-7.76 675.61-8.84 676.24-9.91 676.61-11.43 676.97-12.94 677.1-14.55 677.22-16.16 677.22-17.24L677.22-17.24Q677.22-18.55 677.05-20.02 676.88-21.48 676.48-22.73 676.09-23.97 675.46-24.8 674.82-25.63 673.85-25.63ZM712.18-25.68L712.18-25.68Q712.18-22.31 710.61-19.63 709.05-16.94 706.46-14.89L706.46-14.89Q707.24-13.72 708.07-12.16 708.9-10.6 709.56-8.86 710.22-7.13 710.64-5.4 711.05-3.66 711.05-2.2L711.05-2.2Q711.05-0.63 710.3 0.61 709.54 1.86 707.73 1.86L707.73 1.86Q706.22 1.86 705.12 0.39 704.02-1.07 703.17-3.1 702.31-5.13 701.6-7.23 700.9-9.33 700.26-10.6L700.26-10.6Q699.38-10.3 698.55-9.94 697.72-9.57 696.84-9.23L696.84-9.23Q696.79-8.15 696.67-6.27 696.55-4.39 696.14-2.54 695.72-0.68 694.89 0.68 694.06 2.05 692.6 2.05L692.6 2.05Q690.98 2.05 690.11 0.73 689.23-0.59 688.86-2.39 688.49-4.2 688.45-6.08 688.4-7.96 688.4-9.03L688.4-9.03Q688.4-11.33 688.49-13.55 688.59-15.77 688.59-18.07L688.59-18.07Q688.59-20.17 688.52-22.27 688.45-24.37 688.45-26.51L688.45-26.51Q688.45-27 688.45-27.76 688.45-28.52 688.52-29.32 688.59-30.13 688.69-30.86 688.79-31.59 689.03-32.03L689.03-32.03Q689.52-33.06 691.25-33.98 692.99-34.91 695.06-35.62 697.14-36.33 699.11-36.74 701.09-37.16 702.07-37.16L702.07-37.16Q704.56-37.16 706.46-36.23 708.37-35.3 709.64-33.72 710.91-32.13 711.54-30.05 712.18-27.98 712.18-25.68ZM703.14-25L703.14-25Q703.14-26.27 702.56-26.93 701.97-27.59 700.65-27.59L700.65-27.59Q699.68-27.59 698.67-27.25 697.67-26.9 696.84-26.46L696.84-26.46Q697.04-22.61 696.99-18.8L696.99-18.8Q698.02-19.14 699.09-19.68 700.16-20.21 701.07-21 701.97-21.78 702.56-22.75 703.14-23.73 703.14-25ZM748.3-26.17L748.3-26.17Q748.3-23.54 747.16-21 746.01-18.46 744.1-16.43 742.2-14.4 739.76-13.11 737.32-11.82 734.73-11.67L734.73-11.67Q734.68-10.79 734.66-9.45 734.63-8.11 734.49-6.64 734.34-5.18 734.07-3.71 733.8-2.25 733.29-1.07 732.78 0.1 731.97 0.83 731.16 1.56 729.99 1.56L729.99 1.56Q728.63 1.56 727.82 0.66 727.01-0.24 726.6-1.51 726.18-2.78 726.04-4.17 725.89-5.57 725.84-6.54L725.84-6.54Q725.75-7.96 725.72-9.33 725.7-10.69 725.7-12.11L725.7-12.11Q725.7-12.74 725.7-14.48 725.7-16.21 725.72-18.43 725.75-20.65 725.79-23.07 725.84-25.49 725.94-27.56 726.04-29.64 726.16-31.1 726.28-32.57 726.48-32.81L726.48-32.81Q726.53-32.86 726.77-33.03 727.01-33.2 727.31-33.37 727.6-33.54 727.84-33.69 728.09-33.84 728.19-33.89L728.19-33.89Q730.43-35.16 733.12-36.08 735.8-37.01 738.44-37.01L738.44-37.01Q740.69-37.01 742.52-36.11 744.35-35.21 745.64-33.72 746.94-32.23 747.62-30.25 748.3-28.27 748.3-26.17ZM739.86-25.05L739.86-25.05Q739.86-26.03 739.39-26.76 738.93-27.49 737.85-27.49L737.85-27.49Q736.93-27.49 736-27.12 735.07-26.76 734.29-26.37L734.29-26.37Q734.44-24.66 734.56-23.05 734.68-21.44 734.58-19.73L734.58-19.73Q735.36-20.12 736.29-20.63 737.22-21.14 738-21.78 738.78-22.41 739.32-23.22 739.86-24.02 739.86-25.05ZM773.3-25.68L773.3-25.68Q773.3-22.31 771.74-19.63 770.18-16.94 767.59-14.89L767.59-14.89Q768.37-13.72 769.2-12.16 770.03-10.6 770.69-8.86 771.35-7.13 771.76-5.4 772.18-3.66 772.18-2.2L772.18-2.2Q772.18-0.63 771.42 0.61 770.66 1.86 768.86 1.86L768.86 1.86Q767.34 1.86 766.25 0.39 765.15-1.07 764.29-3.1 763.44-5.13 762.73-7.23 762.02-9.33 761.39-10.6L761.39-10.6Q760.51-10.3 759.68-9.94 758.85-9.57 757.97-9.23L757.97-9.23Q757.92-8.15 757.8-6.27 757.68-4.39 757.26-2.54 756.85-0.68 756.02 0.68 755.19 2.05 753.72 2.05L753.72 2.05Q752.11 2.05 751.23 0.73 750.35-0.59 749.99-2.39 749.62-4.2 749.57-6.08 749.52-7.96 749.52-9.03L749.52-9.03Q749.52-11.33 749.62-13.55 749.72-15.77 749.72-18.07L749.72-18.07Q749.72-20.17 749.64-22.27 749.57-24.37 749.57-26.51L749.57-26.51Q749.57-27 749.57-27.76 749.57-28.52 749.64-29.32 749.72-30.13 749.81-30.86 749.91-31.59 750.16-32.03L750.16-32.03Q750.64-33.06 752.38-33.98 754.11-34.91 756.19-35.62 758.26-36.33 760.24-36.74 762.22-37.16 763.19-37.16L763.19-37.16Q765.68-37.16 767.59-36.23 769.49-35.3 770.76-33.72 772.03-32.13 772.67-30.05 773.3-27.98 773.3-25.68ZM764.27-25L764.27-25Q764.27-26.27 763.68-26.93 763.1-27.59 761.78-27.59L761.78-27.59Q760.8-27.59 759.8-27.25 758.8-26.9 757.97-26.46L757.97-26.46Q758.16-22.61 758.12-18.8L758.12-18.8Q759.14-19.14 760.22-19.68 761.29-20.21 762.19-21 763.1-21.78 763.68-22.75 764.27-23.73 764.27-25ZM796.3-7.67L796.3-7.67Q796.3-6.74 795.81-5.86L795.81-5.86Q795.32-5.03 793.51-3.91 791.71-2.78 789.51-1.78 787.31-0.78 785.26-0.07 783.21 0.63 782.23 0.63L782.23 0.63Q781.55 0.63 780.62 0.32 779.7 0 778.77-0.49 777.84-0.98 777.08-1.61 776.33-2.25 775.98-2.83L775.98-2.83Q775.79-3.17 775.62-4.2 775.45-5.22 775.33-6.59 775.2-7.96 775.11-9.5 775.01-11.04 774.93-12.43 774.86-13.82 774.84-14.89 774.81-15.97 774.81-16.46L774.81-16.46Q774.81-18.26 774.93-20.61 775.06-22.95 775.4-25.32 775.74-27.69 776.4-29.86 777.06-32.03 778.18-33.54L778.18-33.54Q778.52-33.98 779.55-34.47 780.57-34.96 781.97-35.4 783.36-35.84 784.97-36.23 786.58-36.62 788.07-36.89 789.56-37.16 790.78-37.33 792-37.5 792.63-37.5L792.63-37.5Q793.37-37.5 794.03-37.18 794.69-36.87 795.15-36.33 795.61-35.79 795.88-35.13 796.15-34.47 796.15-33.74L796.15-33.74Q796.15-33.11 795.98-32.67 795.81-32.23 795.47-31.69L795.47-31.69Q794.98-31.05 793.42-30.18 791.85-29.3 790.02-28.44 788.19-27.59 786.51-26.9 784.82-26.22 784.14-25.93L784.14-25.93Q783.94-24.8 783.72-23.66 783.5-22.51 783.41-21.34L783.41-21.34Q784.92-22.12 786.82-22.8 788.73-23.49 790.44-23.49L790.44-23.49Q793.9-23.49 793.9-20.07L793.9-20.07Q793.9-19.24 793.59-18.6 793.27-17.97 792.76-17.48 792.24-16.99 791.58-16.63 790.93-16.26 790.29-15.92L790.29-15.92Q788.73-15.09 787.02-14.48 785.31-13.87 783.6-13.28L783.6-13.28Q783.5-12.89 783.41-12.43 783.31-11.96 783.31-11.52L783.31-11.52Q783.31-10.84 783.41-10.16 783.5-9.47 783.6-8.79L783.6-8.79Q784.19-8.98 785.48-9.42 786.78-9.86 788.19-10.3 789.61-10.74 790.93-11.06 792.24-11.38 792.88-11.38L792.88-11.38Q793.61-11.38 794.25-11.06 794.88-10.74 795.32-10.23 795.76-9.72 796.03-9.03 796.3-8.35 796.3-7.67ZM820.07-24.85L820.07-24.85Q820.07-23.93 819.85-22.9 819.63-21.88 819.15-21 818.66-20.12 817.88-19.53 817.09-18.95 815.97-18.95L815.97-18.95Q814.26-18.95 813.43-19.56 812.6-20.17 812.26-21.09 811.92-22.02 811.89-23.07 811.87-24.12 811.82-25.05 811.77-25.98 811.5-26.59 811.24-27.2 810.36-27.2L810.36-27.2Q809.38-27.2 808.65-26.49 807.92-25.78 807.38-24.66 806.84-23.54 806.47-22.12 806.11-20.7 805.89-19.31 805.67-17.92 805.57-16.67 805.47-15.43 805.47-14.65L805.47-14.65Q805.47-13.62 805.55-12.21 805.62-10.79 806.01-9.5 806.4-8.2 807.18-7.3 807.96-6.4 809.43-6.4L809.43-6.4Q810.41-6.4 811.33-6.64 812.26-6.88 813.19-7.2 814.12-7.52 815.07-7.76 816.02-8.01 817-8.01L817-8.01Q818.12-8.01 818.85-7.1 819.59-6.2 819.59-5.08L819.59-5.08Q819.59-3.52 818.61-2.17 817.63-0.83 816.19 0.2 814.75 1.22 813.07 1.81 811.38 2.39 810.01 2.39L810.01 2.39Q806.5 2.39 804.06 0.81 801.62-0.78 800.1-3.3 798.59-5.81 797.93-8.91 797.27-12.01 797.27-15.09L797.27-15.09Q797.27-17.14 797.66-19.58 798.05-22.02 798.83-24.49 799.61-26.95 800.81-29.25 802.01-31.54 803.62-33.3 805.23-35.06 807.26-36.13 809.28-37.21 811.72-37.21L811.72-37.21Q814.12-37.21 815.73-36.01 817.34-34.81 818.32-32.98 819.29-31.15 819.68-28.98 820.07-26.81 820.07-24.85ZM838.92-33.15L838.92-33.15Q838.92-32.23 838.5-31.49 838.09-30.76 837.4-30.25 836.72-29.74 835.89-29.39 835.06-29.05 834.28-28.91L834.28-28.91Q834.18-23.39 833.86-18.26 833.55-13.13 832.86-7.67L832.86-7.67 833.16-7.67Q833.94-7.67 834.7-7.5 835.45-7.32 836.06-6.91 836.67-6.49 837.04-5.88 837.4-5.27 837.4-4.39L837.4-4.39Q837.4-3.27 836.7-2.44 835.99-1.61 834.84-1.03 833.69-0.44 832.28-0.05 830.86 0.34 829.45 0.56 828.03 0.78 826.76 0.88 825.49 0.98 824.71 0.98L824.71 0.98Q824.12 0.98 823.27 0.93 822.41 0.88 821.66 0.63 820.9 0.39 820.36-0.1 819.83-0.59 819.83-1.42L819.83-1.42Q819.83-2.44 820.24-3.25 820.66-4.05 821.34-4.69 822.02-5.32 822.88-5.71 823.73-6.1 824.61-6.3L824.61-6.3Q824.95-8.98 825.25-11.65 825.54-14.31 825.64-17.04L825.64-17.04Q825.74-19.82 825.83-22.53 825.93-25.24 826.03-27.98L826.03-27.98Q825.69-27.93 825.39-27.91 825.1-27.88 824.86-27.88L824.86-27.88Q824.17-27.88 823.39-28.03 822.61-28.17 821.93-28.54 821.24-28.91 820.78-29.44 820.32-29.98 820.32-30.81L820.32-30.81Q820.32-32.47 821.71-33.54 823.1-34.62 825.03-35.21 826.96-35.79 828.96-36.01 830.96-36.23 832.18-36.23L832.18-36.23Q832.86-36.23 833.99-36.13 835.11-36.04 836.21-35.69 837.31-35.35 838.11-34.77 838.92-34.18 838.92-33.15ZM850.78 1.61L850.78 1.61Q847.8 1.61 845.61 0.12 843.41-1.37 841.97-3.88 840.53-6.4 839.82-9.72 839.11-13.04 839.11-16.7L839.11-16.7Q839.11-20.12 839.87-23.63 840.63-27.15 842.19-29.98 843.75-32.81 846.14-34.62 848.54-36.43 851.86-36.43L851.86-36.43Q855.08-36.43 857.25-34.69 859.42-32.96 860.72-30.2 862.01-27.44 862.57-24.02 863.13-20.61 863.13-17.19L863.13-17.19Q863.13-13.38 862.38-9.99 861.62-6.59 860.08-4 858.55-1.42 856.23 0.1 853.91 1.61 850.78 1.61ZM851.37-25.63L851.37-25.63Q850.44-25.63 849.78-24.9 849.12-24.17 848.68-22.97 848.24-21.78 848.05-20.29 847.85-18.8 847.85-17.29L847.85-17.29Q847.85-15.58 848.07-13.87 848.29-12.16 848.73-10.79 849.17-9.42 849.83-8.59 850.49-7.76 851.42-7.76L851.42-7.76Q852.49-7.76 853.13-8.84 853.76-9.91 854.13-11.43 854.49-12.94 854.61-14.55 854.74-16.16 854.74-17.24L854.74-17.24Q854.74-18.55 854.57-20.02 854.39-21.48 854-22.73 853.61-23.97 852.98-24.8 852.34-25.63 851.37-25.63Z" opacity="1" transform="matrix(1,0,0,1,0,0)" fill="#ffffff" class="slogan-text-1" data-fill-palette-color="secondary" id="text-1"></path></svg></g></svg></g></svg></g></svg></g><g><svg viewBox="0 0 214.48851839999998 214.48851839999998" height="214.48851839999998" width="214.48851839999998"><g><svg></svg></g><g id="icon-0"><svg viewBox="0 0 214.48851839999998 214.48851839999998" height="214.48851839999998" width="214.48851839999998"><g><rect width="195.02567136" height="195.02567136" x="9.731423519999993" y="9.731423519999993" fill="#ffffff" data-fill-palette-color="accent"></rect><rect width="195.02567136" height="195.02567136" x="19.462847039999993" y="-5.329070518200751e-15" fill="#ffffff" opacity="0.5" data-fill-palette-color="accent"></rect></g><g transform="matrix(1,0,0,1,65.55130014737094,27.80406719999999)"><svg viewBox="0 0 83.38591810525811 158.880384" height="158.880384" width="83.38591810525811"><g><svg xmlns="http://www.w3.org/2000/svg" xmlns:xlink="http://www.w3.org/1999/xlink" version="1.1" x="0" y="0" viewBox="27.30000114440918 6.706027984619141 45.49999237060547 86.6939697265625" enable-background="new 0 0 100 100" xml:space="preserve" height="158.880384" width="83.38591810525811" class="icon-s-0" data-fill-palette-color="background" id="s-0"><path d="M72.1 57.1c0-0.1 0-0.1-0.1-0.2L71 54.5 65.5 30l5.4-14.7c0.6-1.6 0.5-3.4-0.2-4.9-0.7-1.6-2-2.7-3.6-3.3-1.6-0.6-3.4-0.5-4.9 0.2-1.5 0.7-2.6 1.9-3.2 3.4-1.4-0.7-3-1-4.5-0.6-1.7 0.4-3.1 1.4-4 2.9s-1.2 3.2-0.8 4.9L52 28.8l-3.5 9.5c-1.2-1.4-3-2.4-5-2.4-3 0-5.6 2.1-6.2 4.9-1-0.7-2.3-1.1-3.6-1.1-3.6 0-6.4 2.9-6.4 6.4l0 16.6c0 13 2.2 18.6 3.8 22.7 0.9 2.3 1.6 4 1.6 6.4 0 0.8 0.7 1.5 1.5 1.5s1.5-0.7 1.5-1.5c0-3-0.8-5.1-1.8-7.5-1.3-3.4-3.1-7.9-3.5-17.2 1 0.6 2.1 0.9 3.3 0.9 3 0 5.6-2.1 6.2-4.9 1 0.7 2.3 1.1 3.6 1.1 3.6 0 6.4-2.9 6.4-6.4v-8.5c1.8 2.6 4.9 4 7.7 5.2l2.2 6.9c-7.5 1.5-10.6 11.3-10.7 11.7-0.2 0.8 0.2 1.6 1 1.9 0.8 0.2 1.6-0.2 1.9-1 0-0.1 3-9.8 9.8-9.8 0.5 0 0.9-0.2 1.2-0.6 0.3-0.4 0.4-0.9 0.2-1.3l-3-9.3c-0.1-0.4-0.4-0.8-0.8-0.9-6.2-2.7-9.1-4.6-7.5-10.1l4.1 1.6c0 0 0 0 0 0l5.4 2.2c1.4 0.6 2.5 1.4 3.4 2.8l4.4 9.6c0.5 1.7 0.5 2.4 0.5 4.4l0 0.2C69.5 73.4 67 79 65 83.5c-1.3 2.9-2.4 5.4-2.4 8.4 0 0.8 0.7 1.5 1.5 1.5s1.5-0.7 1.5-1.5c0-2.4 0.9-4.4 2.1-7.2 2-4.5 4.7-10.6 5.1-21.9v-0.3C72.8 60.3 72.8 59.3 72.1 57.1zM63.3 10c0.8-0.4 1.8-0.4 2.6-0.1 0.9 0.3 1.6 0.9 1.9 1.8s0.4 1.8 0.1 2.6l-3.8 10.3-2.2-9.7c-0.2-0.7-0.5-1.4-0.9-2l0.3-0.9C61.8 11 62.5 10.4 63.3 10zM37.1 61.6c0 1.9-1.5 3.4-3.4 3.4-1.8 0-3.3-1.4-3.4-3.1v-0.3c0-0.1 0-0.2 0-0.3V46.2c0-1.9 1.5-3.4 3.4-3.4s3.4 1.5 3.4 3.4v11.6V61.6zM47 57.8c0 1.9-1.5 3.4-3.4 3.4s-3.4-1.5-3.4-3.4V46.2v-3.8c0-1.9 1.5-3.4 3.4-3.4s3.4 1.5 3.4 3.4V57.8zM51.6 38.5l1.6-4.4 1.3 5.5L51.6 38.5zM62.6 42.9L57.9 41l-5.5-23.9c-0.2-0.9-0.1-1.8 0.4-2.6 0.5-0.8 1.3-1.3 2.1-1.5 0.9-0.2 1.8-0.1 2.6 0.4 0.8 0.5 1.3 1.3 1.5 2.1l6.6 29.4C64.8 44 63.8 43.4 62.6 42.9z" fill="#ffffff" data-fill-palette-color="background"></path></svg></g></svg></g></svg></g></svg></g></svg></g><defs></defs></svg><rect width="395.52" height="136.19177063341579" fill="none" stroke="none" visibility="hidden"></rect></g></svg></g></svg>